<?xml version="1.0" encoding="UTF-8"?>
<svg id="Layer_1" data-name="Layer 1" xmlns="http://www.w3.org/2000/svg" viewBox="0 0 785.69 140.31">
  <defs>
    <style>
      .cls-1 {
        fill: #fff;
      }
    </style>
  </defs>
  <g>
    <path class="cls-1" d="M273.32,126.71c-3.08,0-5.89-.57-8.43-1.7-2.54-1.13-4.72-2.75-6.53-4.86-1.81-2.11-3.23-4.67-4.25-7.68-1.02-3.01-1.53-6.43-1.53-10.23s.54-7.51,1.63-10.57c1.09-3.06,2.61-5.63,4.56-7.72,1.95-2.08,4.24-3.66,6.87-4.73,2.63-1.06,5.48-1.6,8.57-1.6,3.31,0,5.9.51,7.79,1.53,1.88,1.02,3.12,2.12,3.71,3.3h.34v-4.01h7v14.76h-7v-3.15c0-2.42-.83-4.32-2.48-5.71-1.66-1.39-4.18-2.09-7.58-2.09-4.4,0-7.65,1.19-9.76,3.58s-3.16,5.89-3.16,10.52v11.72c0,4.36,1.01,7.72,3.03,10.08,2.02,2.36,4.79,3.54,8.33,3.54,3.26,0,5.76-.82,7.48-2.46,1.72-1.64,2.58-3.82,2.58-6.56v-6.35h-7.28v-4.15h20.47v4.15h-3.74v19.58h-3.33l-3.88-6.74h-.34c-.27.82-.77,1.67-1.5,2.55-.73.89-1.66,1.7-2.79,2.45-1.13.75-2.44,1.36-3.91,1.84-1.47.48-3.09.71-4.86.71Z"/>
    <path class="cls-1" d="M314.66,126.71c-3.67,0-6.39-.88-8.16-2.65-1.77-1.77-2.65-4.22-2.65-7.34,0-3.44,1.26-6.05,3.77-7.82,2.52-1.77,6.45-2.65,11.8-2.65h4.83v-4.28c0-2.76-.57-4.86-1.7-6.29-1.13-1.43-2.99-2.14-5.58-2.14-2,0-3.54.3-4.62.88v.27c.45.27.89.69,1.33,1.26.43.57.65,1.35.65,2.35,0,1.32-.4,2.39-1.19,3.23-.79.84-1.96,1.26-3.5,1.26-1.32,0-2.39-.43-3.23-1.29-.84-.86-1.26-1.99-1.26-3.4,0-1.09.31-2.14.92-3.16.61-1.02,1.53-1.93,2.75-2.72,1.22-.79,2.73-1.43,4.52-1.9,1.79-.48,3.86-.71,6.22-.71,4.53,0,7.93,1.03,10.2,3.09,2.27,2.06,3.4,4.95,3.4,8.67v20.54h4.35v3.4c-.68.45-1.59.8-2.72,1.05-1.13.25-2.29.37-3.47.37-2.27,0-3.9-.56-4.9-1.67-1-1.11-1.5-2.53-1.5-4.25v-.2h-.34c-.32.77-.73,1.52-1.22,2.24-.5.73-1.13,1.37-1.9,1.94-.77.57-1.71,1.03-2.82,1.39-1.11.36-2.44.54-3.98.54ZM318.13,121.27c1.81,0,3.29-.43,4.42-1.29,1.13-.86,1.7-2.31,1.7-4.35v-5.71h-3.88c-2.72,0-4.66.49-5.81,1.46-1.16.98-1.73,2.37-1.73,4.18v1.22c0,1.54.49,2.68,1.46,3.4.97.73,2.25,1.09,3.84,1.09Z"/>
    <path class="cls-1" d="M341.52,121.81h4.35v-40.6l-4.35-.88v-3.4l13.26-2.72v47.6h4.35v4.08h-17.61v-4.08Z"/>
    <path class="cls-1" d="M363.15,121.81h4.35v-40.6l-4.35-.88v-3.4l13.26-2.72v47.6h4.35v4.08h-17.61v-4.08Z"/>
    <path class="cls-1" d="M402.31,126.71c-2.54,0-4.84-.42-6.9-1.26-2.06-.84-3.83-2.06-5.3-3.67-1.47-1.61-2.62-3.56-3.43-5.85-.82-2.29-1.22-4.88-1.22-7.79s.41-5.5,1.22-7.79c.82-2.29,1.96-4.24,3.43-5.85,1.47-1.61,3.24-2.83,5.3-3.67,2.06-.84,4.36-1.26,6.9-1.26s4.84.42,6.9,1.26c2.06.84,3.83,2.06,5.3,3.67,1.47,1.61,2.62,3.56,3.43,5.85.82,2.29,1.22,4.89,1.22,7.79s-.41,5.5-1.22,7.79c-.82,2.29-1.96,4.24-3.43,5.85-1.47,1.61-3.24,2.83-5.3,3.67-2.06.84-4.36,1.26-6.9,1.26ZM402.31,122.22c2.45,0,4.27-.75,5.47-2.24,1.2-1.5,1.8-3.6,1.8-6.32v-11.02c0-2.72-.6-4.83-1.8-6.32-1.2-1.5-3.03-2.24-5.47-2.24s-4.27.75-5.47,2.24c-1.2,1.5-1.8,3.6-1.8,6.32v11.02c0,2.72.6,4.83,1.8,6.32,1.2,1.5,3.03,2.24,5.47,2.24Z"/>
    <path class="cls-1" d="M424.01,135.41h4.35v-38.83l-4.35-.88v-3.4l13.26-2.72v6.12h.34c.68-1.63,1.82-3.06,3.43-4.28,1.61-1.22,3.68-1.84,6.22-1.84,2.18,0,4.14.43,5.88,1.29,1.74.86,3.24,2.1,4.49,3.71,1.25,1.61,2.2,3.56,2.86,5.85.66,2.29.99,4.86.99,7.72s-.33,5.43-.99,7.72c-.66,2.29-1.61,4.24-2.86,5.85-1.25,1.61-2.74,2.85-4.49,3.71-1.75.86-3.71,1.29-5.88,1.29-2.58,0-4.67-.61-6.26-1.84-1.59-1.22-2.72-2.63-3.4-4.22h-.34v14.76h5.71v4.08h-18.97v-4.08ZM444.34,121.13c2.27,0,4.1-.77,5.51-2.31,1.4-1.54,2.11-3.72,2.11-6.53v-8.3c0-2.81-.7-4.99-2.11-6.53-1.41-1.54-3.24-2.31-5.51-2.31-1.9,0-3.56.58-4.96,1.73-1.41,1.16-2.11,2.73-2.11,4.73v13.06c0,2,.7,3.57,2.11,4.73,1.41,1.16,3.06,1.73,4.96,1.73Z"/>
    <path class="cls-1" d="M467.19,121.81h4.35v-25.23l-4.35-.88v-3.4l13.26-2.72v32.23h4.35v4.08h-17.61v-4.08ZM475.96,84.75c-1.68,0-2.98-.48-3.91-1.43-.93-.95-1.39-2.2-1.39-3.74v-.34c0-1.54.46-2.79,1.39-3.74.93-.95,2.23-1.43,3.91-1.43s2.98.48,3.91,1.43c.93.95,1.39,2.2,1.39,3.74v.34c0,1.54-.46,2.79-1.39,3.74-.93.95-2.23,1.43-3.91,1.43Z"/>
    <path class="cls-1" d="M489.49,121.81h4.35v-25.23l-4.35-.88v-3.4l13.12-2.72v6.6h.34c.32-.86.76-1.69,1.33-2.48.57-.79,1.27-1.5,2.11-2.11.84-.61,1.8-1.1,2.89-1.46,1.09-.36,2.33-.54,3.74-.54,4.31,0,7.37,1.1,9.18,3.3,1.81,2.2,2.72,5.5,2.72,9.89v19.04h4.35v4.08h-17.41v-4.08h4.15v-18.63c0-2.67-.5-4.61-1.5-5.81-1-1.2-2.61-1.8-4.83-1.8-.86,0-1.7.11-2.52.34-.82.23-1.55.58-2.21,1.05-.66.48-1.19,1.08-1.6,1.8-.41.73-.61,1.59-.61,2.58v20.47h4.15v4.08h-17.41v-4.08Z"/>
    <path class="cls-1" d="M549.8,140.31c-3.17,0-5.81-.18-7.92-.54-2.11-.36-3.81-.89-5.1-1.59-1.29-.7-2.21-1.55-2.75-2.54-.54-.99-.82-2.1-.82-3.32,0-1.71.75-3.14,2.24-4.26,1.5-1.13,3.26-1.87,5.3-2.23v-.27c-1.54-.36-2.77-1.1-3.67-2.21-.91-1.11-1.36-2.53-1.36-4.25,0-1.99.66-3.56,1.97-4.69,1.31-1.13,2.9-1.9,4.76-2.31v-.34c-2.27-.91-4.02-2.23-5.27-3.96-1.25-1.73-1.87-3.89-1.87-6.48,0-1.86.35-3.52,1.05-4.98.7-1.46,1.7-2.68,2.99-3.68,1.29-1,2.83-1.76,4.62-2.28,1.79-.52,3.77-.79,5.95-.79,1.77,0,3.38.18,4.83.54,1.45.36,2.79.88,4.01,1.56.18-2.54.8-4.39,1.87-5.54,1.06-1.16,2.53-1.73,4.39-1.73,1.22,0,2.24.35,3.06,1.05.82.7,1.22,1.71,1.22,3.03,0,1.18-.39,2.14-1.16,2.89-.77.75-1.81,1.12-3.13,1.12-.73,0-1.41-.14-2.04-.41-.64-.27-1.16-.68-1.56-1.22h-.27v2.51c1.04.91,1.89,2,2.55,3.26.66,1.27.99,2.83.99,4.69s-.36,3.53-1.09,5c-.73,1.47-1.73,2.71-3.03,3.71-1.29,1-2.85,1.76-4.66,2.28-1.81.52-3.81.78-5.98.78-1.59,0-3.17-.18-4.76-.54-.77.36-1.41.85-1.9,1.46-.5.61-.75,1.28-.75,2.01,0,1,.37,1.73,1.12,2.21s1.98.71,3.71.71h7.96c4.67,0,8.02.86,10.06,2.58s3.06,4.07,3.06,7.05c0,3.66-1.54,6.53-4.62,8.61-3.08,2.08-7.75,3.12-14.01,3.12ZM540.56,131.64c0,3.06,2.58,4.59,7.75,4.59h4.01c2.86,0,5.02-.43,6.49-1.28,1.47-.86,2.21-2.12,2.21-3.78,0-1.58-.53-2.67-1.6-3.27-1.07-.61-2.71-.91-4.93-.91h-11.29c-.91.54-1.58,1.18-2.01,1.92-.43.74-.65,1.65-.65,2.73ZM550.01,108.96c3.9,0,5.85-2.18,5.85-6.53v-2.04c0-4.35-1.95-6.53-5.85-6.53s-5.85,2.18-5.85,6.53v2.04c0,4.35,1.95,6.53,5.85,6.53Z"/>
    <path class="cls-1" d="M609.98,126.71c-3.08,0-5.89-.57-8.43-1.7s-4.71-2.75-6.53-4.86c-1.81-2.11-3.23-4.67-4.25-7.68-1.02-3.01-1.53-6.43-1.53-10.23s.54-7.51,1.63-10.57c1.09-3.06,2.61-5.63,4.56-7.72,1.95-2.08,4.24-3.66,6.87-4.73,2.63-1.06,5.49-1.6,8.57-1.6,3.31,0,5.9.51,7.79,1.53,1.88,1.02,3.12,2.12,3.71,3.3h.34v-4.01h7v14.76h-7v-3.15c0-2.42-.83-4.32-2.48-5.71-1.66-1.39-4.18-2.09-7.58-2.09-4.4,0-7.65,1.19-9.76,3.58-2.11,2.38-3.16,5.89-3.16,10.52v11.72c0,4.36,1.01,7.72,3.03,10.08,2.02,2.36,4.79,3.54,8.33,3.54,3.26,0,5.76-.82,7.48-2.46,1.72-1.64,2.58-3.82,2.58-6.56v-6.35h-7.28v-4.15h20.47v4.15h-3.74v19.58h-3.33l-3.88-6.74h-.34c-.27.82-.77,1.67-1.5,2.55-.73.89-1.66,1.7-2.79,2.45-1.13.75-2.44,1.36-3.91,1.84-1.47.48-3.09.71-4.86.71Z"/>
    <path class="cls-1" d="M656.97,126.71c-2.54,0-4.84-.42-6.9-1.26-2.06-.84-3.83-2.06-5.3-3.67-1.47-1.61-2.62-3.56-3.43-5.85-.82-2.29-1.22-4.88-1.22-7.79s.41-5.5,1.22-7.79c.82-2.29,1.96-4.24,3.43-5.85,1.47-1.61,3.24-2.83,5.3-3.67,2.06-.84,4.36-1.26,6.9-1.26s4.84.42,6.9,1.26c2.06.84,3.83,2.06,5.3,3.67,1.47,1.61,2.62,3.56,3.43,5.85.82,2.29,1.22,4.89,1.22,7.79s-.41,5.5-1.22,7.79c-.82,2.29-1.96,4.24-3.43,5.85-1.47,1.61-3.24,2.83-5.3,3.67-2.06.84-4.36,1.26-6.9,1.26ZM656.97,122.22c2.45,0,4.27-.75,5.47-2.24,1.2-1.5,1.8-3.6,1.8-6.32v-11.02c0-2.72-.6-4.83-1.8-6.32s-3.03-2.24-5.47-2.24-4.27.75-5.47,2.24-1.8,3.6-1.8,6.32v11.02c0,2.72.6,4.83,1.8,6.32,1.2,1.5,3.03,2.24,5.47,2.24Z"/>
    <path class="cls-1" d="M696.82,126.71c-2.54,0-4.84-.42-6.9-1.26-2.06-.84-3.83-2.06-5.3-3.67-1.47-1.61-2.62-3.56-3.43-5.85-.82-2.29-1.22-4.88-1.22-7.79s.41-5.5,1.22-7.79c.82-2.29,1.96-4.24,3.43-5.85,1.47-1.61,3.24-2.83,5.3-3.67,2.06-.84,4.36-1.26,6.9-1.26s4.84.42,6.9,1.26c2.06.84,3.83,2.06,5.3,3.67,1.47,1.61,2.62,3.56,3.43,5.85.82,2.29,1.22,4.89,1.22,7.79s-.41,5.5-1.22,7.79c-.82,2.29-1.96,4.24-3.43,5.85-1.47,1.61-3.24,2.83-5.3,3.67-2.06.84-4.36,1.26-6.9,1.26ZM696.82,122.22c2.45,0,4.27-.75,5.47-2.24,1.2-1.5,1.8-3.6,1.8-6.32v-11.02c0-2.72-.6-4.83-1.8-6.32s-3.03-2.24-5.47-2.24-4.27.75-5.47,2.24-1.8,3.6-1.8,6.32v11.02c0,2.72.6,4.83,1.8,6.32,1.2,1.5,3.03,2.24,5.47,2.24Z"/>
    <path class="cls-1" d="M734.08,126.71c-2.4,0-4.31-.45-5.71-1.36-1.41-.91-2.29-1.93-2.65-3.06h-.27v3.6h-5.85v-10.61h5.85v1.22c0,1.81.57,3.22,1.7,4.22,1.13,1,2.97,1.5,5.51,1.5,4.53,0,6.8-1.54,6.8-4.62,0-1.27-.41-2.28-1.22-3.03-.82-.75-2.09-1.35-3.81-1.8l-3.4-.88c-3.76-1-6.56-2.39-8.4-4.18-1.84-1.79-2.75-4.23-2.75-7.31,0-3.44,1.13-6.11,3.4-7.99,2.27-1.88,5.3-2.82,9.11-2.82,2.31,0,4.14.42,5.47,1.26,1.34.84,2.19,1.83,2.55,2.96h.27v-3.4h5.85v10.61h-5.85v-1.63c0-1.72-.57-3.04-1.7-3.94-1.13-.91-2.92-1.36-5.37-1.36-3.9,0-5.85,1.43-5.85,4.28,0,1.32.4,2.38,1.19,3.2.79.82,2.14,1.45,4.05,1.9l3.2.75c3.72.91,6.53,2.2,8.43,3.88,1.9,1.68,2.86,4.17,2.86,7.48,0,3.49-1.21,6.22-3.64,8.19-2.43,1.97-5.68,2.96-9.76,2.96Z"/>
    <path class="cls-1" d="M770.26,126.71c-2.72,0-5.13-.45-7.24-1.36-2.11-.91-3.89-2.19-5.34-3.84-1.45-1.65-2.55-3.63-3.3-5.92-.75-2.29-1.12-4.79-1.12-7.51s.4-5.36,1.19-7.65c.79-2.29,1.91-4.24,3.37-5.85,1.45-1.61,3.18-2.84,5.2-3.71,2.02-.86,4.25-1.29,6.7-1.29s4.66.4,6.63,1.19c1.97.79,3.65,1.92,5.03,3.37,1.38,1.45,2.45,3.19,3.2,5.2.75,2.02,1.12,4.27,1.12,6.77v2.11h-22.85v2.45c0,3.26.85,5.77,2.55,7.51,1.7,1.75,3.93,2.62,6.7,2.62,2.54,0,4.58-.57,6.12-1.7,1.54-1.13,2.67-2.54,3.4-4.22l3.33,2.04c-.41,1.13-1.01,2.28-1.8,3.43-.79,1.16-1.79,2.21-2.99,3.16s-2.62,1.72-4.25,2.31c-1.63.59-3.51.88-5.64.88ZM762.84,104.27h13.6v-.88c0-3.26-.58-5.67-1.73-7.21-1.16-1.54-2.82-2.31-5-2.31s-3.87.76-5.07,2.28c-1.2,1.52-1.8,3.91-1.8,7.17v.95Z"/>
  </g>
  <g>
    <path class="cls-1" d="M254.88,57.26h3.42v-20.63h-5.18v4.18h-3.71v-6.52h22.79v6.52h-3.71v-4.18h-5.18v20.63h3.42v2.16h-11.84v-2.16Z"/>
    <path class="cls-1" d="M274.57,57.26h2.3v-21.49l-2.3-.47v-1.8l7.02-1.44v11.63h.18c.17-.46.4-.89.7-1.31.3-.42.67-.79,1.1-1.12.43-.32.94-.58,1.51-.77.58-.19,1.22-.29,1.94-.29,2.28,0,3.9.58,4.86,1.75.96,1.16,1.44,2.91,1.44,5.24v10.08h2.3v2.16h-9.22v-2.16h2.2v-9.86c0-1.42-.26-2.44-.79-3.08-.53-.64-1.38-.95-2.56-.95-.46,0-.9.06-1.33.18-.43.12-.82.31-1.17.56-.35.25-.63.57-.85.95-.22.38-.32.84-.32,1.37v10.84h2.2v2.16h-9.22v-2.16Z"/>
    <path class="cls-1" d="M307.11,59.85c-1.44,0-2.72-.24-3.83-.72-1.12-.48-2.06-1.16-2.83-2.03s-1.35-1.92-1.75-3.13c-.4-1.21-.59-2.54-.59-3.98s.21-2.84.63-4.05,1.01-2.24,1.78-3.1c.77-.85,1.69-1.51,2.75-1.96,1.07-.46,2.25-.68,3.55-.68s2.47.21,3.51.63c1.04.42,1.93,1.01,2.66,1.78.73.77,1.3,1.69,1.69,2.75.4,1.07.59,2.26.59,3.58v1.12h-12.1v1.3c0,1.73.45,3.05,1.35,3.98.9.92,2.08,1.39,3.55,1.39,1.34,0,2.42-.3,3.24-.9.82-.6,1.42-1.34,1.8-2.23l1.76,1.08c-.22.6-.53,1.21-.95,1.82-.42.61-.95,1.17-1.58,1.67-.64.5-1.39.91-2.25,1.22-.86.31-1.86.47-2.99.47ZM303.19,47.97h7.2v-.47c0-1.73-.31-3-.92-3.82-.61-.82-1.49-1.22-2.65-1.22s-2.05.4-2.68,1.21c-.64.8-.95,2.07-.95,3.8v.5Z"/>
  </g>
  <path class="cls-1" d="M.71,108.5c6.48,3.95,13.75-1,18.33-5.61s10.41-12.57,17.69-9.54l-.9-2.2c-1.83,3.69-5.69,5.48-9.13,7.38s-6.71,4.36-8.37,8.14c-1.56,3.55-1.06,7.66,2.36,9.92s8.17,1.37,12,.6c6.09-1.22,12.18-2.43,18.27-3.65l-1.85-1.05c1.05,3.83,2.09,7.66,3.14,11.48.82,3.02,1.49,6.64,5.01,7.52,3.06.76,6.75.15,9.74-.64,3.36-.88,6.55-2.41,9.34-4.46.94-.69.97-1.9,0-2.59-4.91-3.47-10.19-6.31-15.75-8.59l-.4,2.95c10.7,1.26,21.69-.12,31.78-3.87,5.04-1.87,9.89-4.29,14.36-7.28,2.23-1.49,4.38-3.11,6.42-4.86s4.03-3.87,6.79-4.45,5.84.07,8.62.43,5.61.8,8.36,1.48,5.36,1.57,7.81,2.93c2.59,1.43,4.75,3.4,6.96,5.34,3.57,3.13,7.41,5.55,12.08,6.61,4.19.95,8.57.89,12.75-.06s8.11-2.83,11.46-5.5c3.17-2.53,6.93-6.6,7.24-10.85.47-6.33-7.73-5.71-11.77-4.66-5.12,1.33-9.98,4.28-15.39,4.28-11.6-.01-18.63-11.27-22.48-20.74-1.08-2.67-2.22-5.39-3.04-8.15s-.47-4.95,1.52-6.96c1.7-1.71,3.83-2.9,5.75-4.33,2.07-1.54,3.96-3.28,5.64-5.24,3.34-3.92,5.85-8.54,7.25-13.5.7-2.47,1.08-5,1.24-7.55.12-1.93.12-4.41,1.37-6.01,1.75-2.23,4.62-.27,6.24,1.05,2.12,1.74,4.1,3.57,6.42,5.07,4.56,2.96,9.79,4.97,15.15,5.83,2.7.43,5.42.6,8.15.48.88-.04,1.82-.94,1.45-1.9-2.06-5.36-3.06-10.98-2.94-16.72l-1.9,1.45c5.09,1.77,6.99,8.09,9.66,12.21,1.49,2.31,3.35,4.51,5.84,5.77,3.56,1.8,7.78,1.8,11.68,1.78,5.11-.02,10.2-.52,15.22-1.43,1.18-.21,1.36-1.74.66-2.51-6.37-7.01-12.95-14.02-20.87-19.32-3.79-2.54-7.92-4.64-12.3-5.96-5.11-1.54-10.31-1.6-15.6-1.75s-10.06-1.2-14.98-2.96c-4.5-1.61-8.88-3.54-13.47-4.88-4.23-1.24-8.7-1.94-13.06-1.05-4.97,1.01-8.41,4.33-12.47,7.07-8.56,5.77-19.44,3.93-28.81,1.5-5.47-1.42-10.9-3.05-16.52-3.79-5.18-.69-10.37-.47-15.41.94-20.43,5.71-31.8,24.96-44.26,40.45-6.18,7.69-13.22,15.04-17.19,24.21-2.17,5-2.96,10.28-4.05,15.58-.95,4.61-2.28,9.37-5.42,13.01-1.39,1.61-3.07,2.96-5.07,3.73-1.78.69-1.01,3.59.8,2.89,9.58-3.71,11.75-14.41,13.46-23.38.97-5.07,2.36-9.85,4.89-14.38s5.44-8.26,8.57-12.09,6.47-7.8,9.57-11.82,6.31-8.42,9.61-12.52c6.29-7.82,13.38-15.18,22.4-19.82,4.17-2.14,8.74-3.66,13.42-4.08,5.54-.49,11.02.52,16.38,1.85,9.85,2.45,19.88,5.92,30.15,3.96,2.39-.45,4.72-1.25,6.87-2.37s3.94-2.6,5.83-4.02,3.95-2.83,6.29-3.57c2.03-.64,4.13-.84,6.25-.73,4.56.24,8.98,1.86,13.21,3.46s8.8,3.52,13.4,4.64c5.29,1.3,10.66,1.04,16.06,1.35,4.78.28,9.42,1.47,13.74,3.54,8.44,4.04,15.37,10.58,21.74,17.3,1.6,1.69,3.17,3.4,4.73,5.12l.66-2.51c-4.36.79-8.77,1.23-13.2,1.31-3.79.07-8.33.35-11.76-1.56-4.62-2.58-6.29-8.41-9.12-12.54-1.71-2.5-3.83-4.54-6.73-5.55-.95-.33-1.88.53-1.9,1.45-.13,5.98.9,11.94,3.05,17.52l1.45-1.9c-5.47.25-10.94-.7-15.99-2.82-2.52-1.06-4.92-2.41-7.15-4s-4.13-3.68-6.45-5.18c-2.14-1.38-4.83-2.06-7.15-.67-1.86,1.11-2.77,3.19-3.16,5.24-.44,2.31-.37,4.67-.73,6.99-.4,2.54-1.1,5.04-2.09,7.41-1.98,4.76-5.11,9.02-9.04,12.34-3.52,2.98-8.67,5.04-10.11,9.83-.85,2.83.15,5.68,1.13,8.33s2.01,5.35,3.14,7.98c2.21,5.09,5.01,10.07,9.09,13.91,3.78,3.55,8.55,6.13,13.76,6.62s10.4-1.94,15.44-3.62c2.48-.83,5.08-1.51,7.72-1.25,1.06.1,2.41.36,2.56,1.63.14,1.16-.49,2.38-1.04,3.35-2.1,3.63-5.31,6.48-8.99,8.43-7.32,3.88-16.77,4.22-23.99-.07-2.36-1.4-4.34-3.31-6.4-5.11-2.16-1.88-4.44-3.57-7.04-4.8-5.09-2.42-10.66-3.35-16.2-4.06-2.82-.36-5.72-.88-8.57-.46s-5.02,1.94-7.12,3.76c-4.11,3.56-8.39,6.74-13.19,9.31-9.5,5.08-20.25,7.83-31.03,7.88-2.69.01-5.38-.15-8.06-.46-.74-.09-1.38.64-1.47,1.3-.11.79.37,1.36,1.07,1.65,5.31,2.17,10.35,4.98,15.03,8.28v-2.59c-2.38,1.75-4.99,3.1-7.82,3.94-2.66.79-5.8,1.38-8.58.94-1.37-.22-1.99-1.09-2.41-2.33-.5-1.5-.85-3.05-1.27-4.57-.92-3.36-1.83-6.72-2.75-10.08-.22-.82-1.05-1.21-1.85-1.05-4.81.96-9.62,1.92-14.43,2.88-3.71.74-8.15,2.25-11.94,1.19-3.56-1-3.99-4.56-2.43-7.47,1.8-3.35,4.91-5.07,8.12-6.84,3.49-1.92,7.09-4.06,8.93-7.76.47-.95.03-1.82-.9-2.2-7.01-2.92-13.78,2.95-18.23,7.75-3.9,4.21-10.73,11.58-17.07,7.71-1.65-1.01-3.16,1.59-1.51,2.59h0Z"/>
</svg>