<?xml version="1.0" encoding="UTF-8"?>
<svg id="Layer_1" data-name="Layer 1" xmlns="http://www.w3.org/2000/svg" xmlns:xlink="http://www.w3.org/1999/xlink" viewBox="0 0 1365.33 767.63">
  <defs>
    <style>
      .cls-1 {
        fill: #534741;
      }

      .cls-2 {
        fill: #fff;
      }

      .cls-3 {
        fill: none;
      }

      .cls-4 {
        clip-path: url(#clippath-1);
      }

      .cls-5 {
        clip-path: url(#clippath);
      }
    </style>
    <clipPath id="clippath">
      <rect class="cls-3" width="1365.33" height="767.62"/>
    </clipPath>
    <clipPath id="clippath-1">
      <rect class="cls-3" x="240.88" y="116.03" width="449.78" height="449.78"/>
    </clipPath>
  </defs>
  <g class="cls-5">
    <path class="cls-2" d="M0,0h1365.33v767.63H0V0Z"/>
  </g>
  <g class="cls-4">
    <g>
      <path class="cls-1" d="M500.88,427.46c-20.6,9.1-42.85,8.03-62.92-1.33-2.39-1.11-5.41-3.12-8.16-3.14l-73.65-.35c-8.55-.04-14.37-7.47-14.37-15.36l-.02-95.24c-3.6-.79-7.12-1.69-9.61-4.16-3.18-3.16-3.19-8.08-1.42-12.28,1.48-3.51,6.15-5.41,10.63-6.15,1.04-8.17,6.82-15.16,15.75-14.95,7.11.17,2.25-10.87,16.34-11.04,1.83-1.5,4.43-3.2,6.43-3.64,3.13-.68,5.02,3.11,7.31,3.37,4.16.48,7.3,2.37,10.84,3.4,9.04,2.62,19.29-.49,28.77,1.31.98.19,1.47,2.89,1.72,3.91l.45,1.85c.11.43,1.56-.49,1.85-.99l7.27-12.91,10.8-.36.12-8.45c.01-1,1.87-2.82,3.05-2.82h42.46c2.08,0,3.69,1.65,3.72,3.58l.09,7.78,10.63.14,7.98,14.47,11.45.25.18-11.48c.05-3.16,2.47-5.69,5.72-5.76,10.18-.23,20.01-.2,30.22.1,2.83.08,5.24,2.79,5.33,5.57l.38,11.8c10.91-1.76,18.94,4.66,20.21,14.88,4.34.56,8.51,2.62,10.07,5.68,2.17,4.24,2.14,9.47-1.12,12.71-2.42,2.41-5.69,3.4-9.24,4.52l-.15,95.85c-.01,9.58-7.75,14.67-16.45,14.68l-62.44.07-10.24,4.52ZM506.27,283.58l16.8,10.55-16.23-30.57h-66.64s-12.72,23.98-12.72,23.98c7.87-3.83,14.51-7.02,22.36-9.42,19-5.58,38.62-3.84,56.43,5.45ZM394.22,274.04c.32-.53.14-2.43-.35-3.05-.41-.52-1.99-1.05-2.73-1.05l-23.11.11c-1.1,0-2.42,2.69-2.52,3.95l28.7.05ZM417.12,296.65c4.56-5.39,7.45-11.66,10.65-18.44l-71.18-.02c-6.33.55-11.1,5.25-11.09,11.67l.02,24.33h57.42c5.92-7.36,8.14-10.39,14.18-17.54ZM516.29,414.29c37.87-29.6,39.38-85.39,3.71-117.07-28.06-24.92-70.71-24.87-98.8.82-18,16.46-27,40.31-24.23,65.08,2.49,22.29,15.49,43.29,35.36,55.7,26.23,16.38,59.55,14.56,83.97-4.53ZM586.17,288.94c0-6-5.27-10.71-11.19-10.7l-55.73.13,19.23,35.84h47.71s-.01-25.28-.01-25.28ZM341.46,295.25c-3.77-.28-6.38,2.36-6.39,5.76,0,2.84,3.22,5.89,6.28,5.13l.11-10.89ZM590.37,306.5c5.32-.47,6.37-3.55,6.03-6.84-.26-2.57-3-5.08-6.14-4.39l.11,11.23ZM399.87,319.54c.6,0,1.8-2.03,1.38-2.07-.29-.03-1.26-.21-1.62-.21l-54.01.02.09,1.78c.01.24,1.32.5,1.92.5l52.25-.02ZM348.5,402.66v-77.83s48.8.07,48.8.07c1.19-.58,1.96-1.66,1.77-2.98l-53.59.02v83.55s65.34-.04,65.34-.04c-.41-1.65-1.64-2.47-3.28-2.82l-59.04.03ZM535.11,402.53c-2.01.41-3.37,1.26-3.72,2.97l54.68-.02v-83.56s-42.96-.03-42.96-.03c-.34,1.52.87,2.81,2.39,3.01l37.62-.08v77.83s-48-.13-48-.13ZM424.83,418.78l-10.72-9.81-68.19.15c.7,5.46,5.5,9.66,11.27,9.66h67.64ZM576.08,418.69c5.53,0,9.34-4.87,9.77-9.55l-53.25-.09c-2.63,0-5.42.57-7.18,2.13l-7.83,6.96c.63.16,2.56.64,3.51.64l54.98-.09Z"/>
      <path class="cls-1" d="M419.01,377.15c-12.42-29.49,1.34-63.24,30.59-75.49,22.89-9.58,49.2-2.74,64.96,16.32,18.16,21.97,17.47,53.92-1.87,75.06-13.38,14.63-32.79,21.41-53.08,17.44-17.18-3.36-33.08-15.48-40.6-33.33ZM465.49,408.06c33.3,3.46,60.73-24.35,58.89-56.55-1.84-32.13-31.24-56.34-63.73-49.93-22.99,4.53-40.56,24.48-42.77,47.87-2.75,29.14,18.2,55.55,47.61,58.61Z"/>
      <path class="cls-1" d="M394.56,295.68l-27.98.07c-1.65,0-3.34-1.95-3.31-3.35s1.84-3.14,3.42-3.14h27.31c1.49,0,3.33,1.4,3.57,2.5.36,1.64-1.12,3.91-3,3.91Z"/>
      <path class="cls-1" d="M556.33,288.05c2.3-.54,4.21.86,4.63,2.72.44,1.95-.66,4.09-2.72,4.53-1.64.36-3.88-.6-4.44-1.87-.91-2.05-.06-4.79,2.52-5.39Z"/>
      <path class="cls-1" d="M449.55,401.53c-27.84-12.98-37.92-46.26-23.05-72.64,9.68-17.18,27.7-27.25,47.35-26.22,18.99.99,36.1,12.6,44.04,30.69,8.65,19.7,4.62,42.45-10.42,57.52-14.92,14.95-38.02,19.93-57.92,10.65ZM462.16,387.09c15.44,4.23,30.81-3.25,38.1-16.32,7.5-13.43,4.79-30-6.27-40.76-12.39-12.07-31.19-12.8-44.39-1.52-9.87,8.44-14.44,21.11-11.16,34,2.84,11.14,11.27,21.2,23.71,24.6Z"/>
      <path class="cls-1" d="M449.17,369.33c-5.24-7.76-5.83-16.66-2.13-25.46,2.85-6.77,9.11-12.9,17.55-15.07,13.03-3.35,26.1,4.03,30.89,16.05s-.51,26.38-11.86,32.58-26.61,3.52-34.45-8.11ZM482.96,345.64c-4.04-5.82-10.57-7.54-16.97-5.21-8.63,3.15-12.25,12.77-8.41,20.69,3.83,7.9,13.36,10.77,20.8,6.33s9.81-14.29,4.59-21.81Z"/>
    </g>
  </g>
</svg>