<svg xmlns="http://www.w3.org/2000/svg" xmlns:xlink="http://www.w3.org/1999/xlink" width="80" zoomAndPan="magnify" viewBox="0 0 60 30.000001" height="40" preserveAspectRatio="xMidYMid meet" version="1.0"><defs><g/><clipPath id="981de28aba"><path d="M 0.96875 0 L 59.03125 0 L 59.03125 29.03125 L 0.96875 29.03125 Z M 0.96875 0 " clip-rule="nonzero"/></clipPath><clipPath id="c88c297df4"><path d="M 1 2 L 59.03125 2 L 59.03125 27 L 1 27 Z M 1 2 " clip-rule="nonzero"/></clipPath><clipPath id="38bad62a20"><path d="M 0.226562 0.371094 L 57.621094 0.371094 L 57.621094 23.953125 L 0.226562 23.953125 Z M 0.226562 0.371094 " clip-rule="nonzero"/></clipPath><clipPath id="996de48d9f"><path d="M 0.226562 0.371094 L 57 0.371094 L 57 23 L 0.226562 23 Z M 0.226562 0.371094 " clip-rule="nonzero"/></clipPath><clipPath id="dff99f05e0"><path d="M 0.226562 0.371094 L 57.621094 0.371094 L 57.621094 23.953125 L 0.226562 23.953125 Z M 0.226562 0.371094 " clip-rule="nonzero"/></clipPath><clipPath id="3ffb3c2072"><rect x="0" width="30" y="0" height="10"/></clipPath><clipPath id="a721ab7b62"><rect x="0" width="59" y="0" height="25"/></clipPath></defs><g clip-path="url(#981de28aba)"><path fill="#ffffff" d="M 0.96875 0 L 59.03125 0 L 59.03125 29.03125 L 0.96875 29.03125 Z M 0.96875 0 " fill-opacity="1" fill-rule="nonzero"/></g><g clip-path="url(#c88c297df4)"><g transform="matrix(1, 0, 0, 1, 1, 2)"><g clip-path="url(#a721ab7b62)"><g clip-path="url(#38bad62a20)"><path fill="#000000" d="M 49.21875 23.953125 C 53.226562 23.953125 55.207031 23.765625 56.320312 22.65625 C 56.882812 22.097656 57.21875 21.3125 57.40625 20.109375 C 57.582031 18.964844 57.621094 17.476562 57.621094 15.59375 L 57.621094 9.6875 C 57.621094 5.699219 57.433594 3.730469 56.320312 2.625 C 56.292969 2.597656 56.261719 2.570312 56.234375 2.542969 L 56.230469 2.539062 L 55.1875 1.585938 L 55.1875 1.582031 C 54.628906 1.070312 53.859375 0.761719 52.710938 0.585938 C 51.5625 0.40625 50.066406 0.371094 48.171875 0.371094 L 8.632812 0.371094 C 4.769531 0.371094 2.792969 0.542969 1.65625 1.546875 C 1.613281 1.585938 1.570312 1.625 1.53125 1.664062 C 0.964844 2.226562 0.632812 3.011719 0.445312 4.214844 C 0.265625 5.355469 0.230469 6.84375 0.230469 8.726562 L 0.230469 14.636719 C 0.230469 18.625 0.417969 20.59375 1.53125 21.699219 C 1.558594 21.726562 1.585938 21.753906 1.613281 21.777344 C 1.613281 21.777344 1.613281 21.78125 1.613281 21.78125 L 2.652344 22.734375 L 2.65625 22.738281 C 3.214844 23.25 3.984375 23.5625 5.136719 23.738281 C 6.285156 23.914062 7.78125 23.953125 9.675781 23.953125 Z M 49.21875 23.953125 " fill-opacity="1" fill-rule="nonzero"/></g><g clip-path="url(#996de48d9f)"><path fill="#ffffff" d="M 48.171875 0.527344 C 55.820312 0.527344 56.417969 1.121094 56.417969 8.726562 L 56.417969 14.636719 C 56.417969 22.242188 55.820312 22.835938 48.171875 22.835938 L 8.632812 22.835938 C 0.984375 22.835938 0.386719 22.242188 0.386719 14.636719 L 0.386719 8.726562 C 0.386719 1.121094 0.984375 0.527344 8.632812 0.527344 Z M 48.171875 0.527344 " fill-opacity="1" fill-rule="nonzero"/></g><g clip-path="url(#dff99f05e0)"><path stroke-linecap="butt" transform="matrix(0.0215594, 0, 0, 0.0214561, 0.228686, 0.371745)" fill="none" stroke-linejoin="miter" d="M 2223.774568 7.251964 C 2578.536138 7.251964 2606.257548 34.924778 2606.257548 389.39167 L 2606.257548 664.845398 C 2606.257548 1019.312291 2578.536138 1046.985104 2223.774568 1046.985104 L 389.813074 1046.985104 C 35.051504 1046.985104 7.330095 1019.312291 7.330095 664.845398 L 7.330095 389.39167 C 7.330095 34.924778 35.051504 7.251964 389.813074 7.251964 Z M 2223.774568 7.251964 " stroke="#000000" stroke-width="10" stroke-opacity="1" stroke-miterlimit="10"/></g><g transform="matrix(1, 0, 0, 1, 14, 6)"><g clip-path="url(#3ffb3c2072)"><g fill="#000000" fill-opacity="1"><g transform="translate(1.208977, 7.300894)"><g><path d="M 5.875 -2.03125 L 6.265625 -1.796875 C 6.265625 -1.796875 6.234375 -1.726562 6.171875 -1.59375 C 6.117188 -1.46875 6.023438 -1.3125 5.890625 -1.125 C 5.753906 -0.9375 5.570312 -0.75 5.34375 -0.5625 C 5.125 -0.382812 4.847656 -0.226562 4.515625 -0.09375 C 4.191406 0.03125 3.800781 0.09375 3.34375 0.09375 C 2.9375 0.09375 2.546875 0.0195312 2.171875 -0.125 C 1.804688 -0.28125 1.476562 -0.488281 1.1875 -0.75 C 0.894531 -1.019531 0.660156 -1.328125 0.484375 -1.671875 C 0.316406 -2.023438 0.234375 -2.40625 0.234375 -2.8125 C 0.234375 -3.207031 0.316406 -3.578125 0.484375 -3.921875 C 0.660156 -4.273438 0.894531 -4.582031 1.1875 -4.84375 C 1.476562 -5.113281 1.804688 -5.320312 2.171875 -5.46875 C 2.546875 -5.625 2.9375 -5.703125 3.34375 -5.703125 C 3.707031 -5.703125 4.066406 -5.65625 4.421875 -5.5625 C 4.785156 -5.46875 5.109375 -5.332031 5.390625 -5.15625 C 5.679688 -4.976562 5.910156 -4.757812 6.078125 -4.5 C 6.253906 -4.25 6.34375 -3.960938 6.34375 -3.640625 L 5.4375 -3.734375 C 5.4375 -3.960938 5.347656 -4.15625 5.171875 -4.3125 C 4.992188 -4.476562 4.742188 -4.601562 4.421875 -4.6875 C 4.109375 -4.78125 3.738281 -4.828125 3.3125 -4.828125 C 2.875 -4.828125 2.488281 -4.734375 2.15625 -4.546875 C 1.832031 -4.367188 1.582031 -4.128906 1.40625 -3.828125 C 1.238281 -3.523438 1.15625 -3.1875 1.15625 -2.8125 C 1.15625 -2.425781 1.238281 -2.082031 1.40625 -1.78125 C 1.582031 -1.476562 1.832031 -1.238281 2.15625 -1.0625 C 2.488281 -0.882812 2.878906 -0.796875 3.328125 -0.796875 C 3.722656 -0.796875 4.0625 -0.835938 4.34375 -0.921875 C 4.632812 -1.003906 4.878906 -1.101562 5.078125 -1.21875 C 5.273438 -1.34375 5.429688 -1.46875 5.546875 -1.59375 C 5.660156 -1.71875 5.742188 -1.820312 5.796875 -1.90625 C 5.847656 -1.988281 5.875 -2.03125 5.875 -2.03125 Z M 5.875 -2.03125 "/></g></g></g><g fill="#000000" fill-opacity="1"><g transform="translate(7.794179, 7.300894)"><g><path d="M 1.53125 -4.90625 L 1.53125 -0.71875 C 1.53125 -0.5625 1.5625 -0.425781 1.625 -0.3125 C 1.695312 -0.207031 1.765625 -0.128906 1.828125 -0.078125 C 1.898438 -0.0234375 1.9375 0 1.9375 0 L 0.234375 0 C 0.234375 0 0.265625 -0.0234375 0.328125 -0.078125 C 0.398438 -0.128906 0.46875 -0.207031 0.53125 -0.3125 C 0.601562 -0.425781 0.640625 -0.5625 0.640625 -0.71875 L 0.640625 -4.90625 C 0.640625 -5.0625 0.601562 -5.191406 0.53125 -5.296875 C 0.46875 -5.410156 0.398438 -5.492188 0.328125 -5.546875 C 0.265625 -5.597656 0.234375 -5.625 0.234375 -5.625 L 1.9375 -5.625 C 1.9375 -5.625 1.898438 -5.597656 1.828125 -5.546875 C 1.765625 -5.503906 1.695312 -5.429688 1.625 -5.328125 C 1.5625 -5.222656 1.53125 -5.082031 1.53125 -4.90625 Z M 1.53125 -4.90625 "/></g></g></g><g fill="#000000" fill-opacity="1"><g transform="translate(9.954448, 7.300894)"><g><path d="M 3.171875 -5.625 C 3.535156 -5.625 3.898438 -5.554688 4.265625 -5.421875 C 4.628906 -5.296875 4.957031 -5.113281 5.25 -4.875 C 5.539062 -4.632812 5.773438 -4.351562 5.953125 -4.03125 C 6.128906 -3.71875 6.21875 -3.375 6.21875 -3 C 6.21875 -2.550781 6.140625 -2.140625 5.984375 -1.765625 C 5.828125 -1.398438 5.613281 -1.082031 5.34375 -0.8125 C 5.070312 -0.550781 4.757812 -0.347656 4.40625 -0.203125 C 4.050781 -0.0664062 3.671875 0 3.265625 0 L 0.25 0 C 0.25 0 0.28125 -0.0234375 0.34375 -0.078125 C 0.414062 -0.128906 0.484375 -0.207031 0.546875 -0.3125 C 0.617188 -0.414062 0.65625 -0.550781 0.65625 -0.71875 L 0.65625 -4.90625 C 0.65625 -5.0625 0.617188 -5.191406 0.546875 -5.296875 C 0.484375 -5.410156 0.414062 -5.492188 0.34375 -5.546875 C 0.28125 -5.597656 0.25 -5.625 0.25 -5.625 Z M 3.046875 -0.875 C 3.472656 -0.875 3.859375 -0.953125 4.203125 -1.109375 C 4.546875 -1.273438 4.816406 -1.503906 5.015625 -1.796875 C 5.210938 -2.085938 5.3125 -2.425781 5.3125 -2.8125 C 5.3125 -3.207031 5.210938 -3.550781 5.015625 -3.84375 C 4.816406 -4.132812 4.546875 -4.359375 4.203125 -4.515625 C 3.859375 -4.671875 3.472656 -4.75 3.046875 -4.75 L 2.15625 -4.75 C 1.988281 -4.75 1.847656 -4.6875 1.734375 -4.5625 C 1.617188 -4.445312 1.5625 -4.3125 1.5625 -4.15625 L 1.5625 -1.453125 C 1.5625 -1.296875 1.613281 -1.160156 1.71875 -1.046875 C 1.832031 -0.929688 1.972656 -0.875 2.140625 -0.875 Z M 3.046875 -0.875 "/></g></g></g><g fill="#000000" fill-opacity="1"><g transform="translate(16.419188, 7.300894)"><g><path d="M 4.390625 -0.875 C 4.441406 -0.875 4.515625 -0.910156 4.609375 -0.984375 C 4.703125 -1.054688 4.800781 -1.144531 4.90625 -1.25 C 5.019531 -1.351562 5.125 -1.457031 5.21875 -1.5625 C 5.3125 -1.675781 5.390625 -1.769531 5.453125 -1.84375 C 5.515625 -1.914062 5.546875 -1.953125 5.546875 -1.953125 L 5.171875 0 L 0.25 0 C 0.25 0 0.28125 -0.0234375 0.34375 -0.078125 C 0.414062 -0.128906 0.484375 -0.207031 0.546875 -0.3125 C 0.617188 -0.425781 0.65625 -0.566406 0.65625 -0.734375 L 0.65625 -4.90625 C 0.65625 -5.050781 0.617188 -5.175781 0.546875 -5.28125 C 0.484375 -5.382812 0.414062 -5.46875 0.34375 -5.53125 C 0.28125 -5.59375 0.25 -5.625 0.25 -5.625 L 4.90625 -5.625 L 5.34375 -3.828125 C 5.34375 -3.828125 5.3125 -3.851562 5.25 -3.90625 C 5.195312 -3.96875 5.125 -4.046875 5.03125 -4.140625 C 4.9375 -4.234375 4.832031 -4.320312 4.71875 -4.40625 C 4.613281 -4.5 4.515625 -4.578125 4.421875 -4.640625 C 4.328125 -4.710938 4.25 -4.75 4.1875 -4.75 L 2.125 -4.75 C 1.96875 -4.75 1.832031 -4.691406 1.71875 -4.578125 C 1.613281 -4.460938 1.5625 -4.328125 1.5625 -4.171875 L 1.5625 -3.296875 L 3.28125 -3.296875 C 3.375 -3.296875 3.476562 -3.316406 3.59375 -3.359375 C 3.71875 -3.398438 3.820312 -3.4375 3.90625 -3.46875 C 3.988281 -3.507812 4.03125 -3.53125 4.03125 -3.53125 L 4.03125 -2.15625 C 4.03125 -2.15625 3.988281 -2.175781 3.90625 -2.21875 C 3.832031 -2.269531 3.734375 -2.316406 3.609375 -2.359375 C 3.492188 -2.398438 3.382812 -2.421875 3.28125 -2.421875 L 1.5625 -2.421875 L 1.5625 -1.4375 C 1.5625 -1.28125 1.613281 -1.144531 1.71875 -1.03125 C 1.832031 -0.925781 1.96875 -0.875 2.125 -0.875 Z M 4.390625 -0.875 "/></g></g></g><g fill="#000000" fill-opacity="1"><g transform="translate(22.225411, 7.300894)"><g><path d="M 5.1875 -1.078125 C 5.332031 -0.878906 5.519531 -0.722656 5.75 -0.609375 C 5.976562 -0.503906 6.21875 -0.453125 6.46875 -0.453125 L 6.46875 0 C 6.300781 0 6.113281 -0.015625 5.90625 -0.046875 C 5.707031 -0.0859375 5.503906 -0.144531 5.296875 -0.21875 C 5.097656 -0.289062 4.910156 -0.378906 4.734375 -0.484375 C 4.566406 -0.585938 4.4375 -0.703125 4.34375 -0.828125 L 3.296875 -2.171875 L 1.53125 -2.171875 L 1.53125 -0.71875 C 1.53125 -0.550781 1.5625 -0.414062 1.625 -0.3125 C 1.695312 -0.207031 1.765625 -0.128906 1.828125 -0.078125 C 1.898438 -0.0234375 1.9375 0 1.9375 0 L 0.234375 0 C 0.234375 0 0.265625 -0.0234375 0.328125 -0.078125 C 0.398438 -0.128906 0.46875 -0.207031 0.53125 -0.3125 C 0.601562 -0.414062 0.640625 -0.550781 0.640625 -0.71875 L 0.640625 -4.828125 C 0.640625 -5.003906 0.601562 -5.148438 0.53125 -5.265625 C 0.46875 -5.378906 0.398438 -5.46875 0.328125 -5.53125 C 0.265625 -5.59375 0.234375 -5.625 0.234375 -5.625 L 4.1875 -5.625 C 4.488281 -5.625 4.757812 -5.550781 5 -5.40625 C 5.25 -5.257812 5.445312 -5.0625 5.59375 -4.8125 C 5.738281 -4.5625 5.8125 -4.289062 5.8125 -4 C 5.8125 -3.625 5.742188 -3.300781 5.609375 -3.03125 C 5.472656 -2.769531 5.289062 -2.566406 5.0625 -2.421875 C 4.84375 -2.273438 4.597656 -2.191406 4.328125 -2.171875 Z M 1.53125 -3.046875 L 3.671875 -3.046875 C 3.859375 -3.046875 4.035156 -3.070312 4.203125 -3.125 C 4.378906 -3.1875 4.523438 -3.265625 4.640625 -3.359375 C 4.765625 -3.460938 4.847656 -3.578125 4.890625 -3.703125 C 4.929688 -3.898438 4.90625 -4.078125 4.8125 -4.234375 C 4.726562 -4.398438 4.59375 -4.523438 4.40625 -4.609375 C 4.21875 -4.703125 4.003906 -4.75 3.765625 -4.75 L 3.765625 -4.734375 L 2.109375 -4.734375 C 1.953125 -4.734375 1.816406 -4.675781 1.703125 -4.5625 C 1.597656 -4.457031 1.539062 -4.328125 1.53125 -4.171875 Z M 1.53125 -3.046875 "/></g></g></g></g></g></g></g></g></svg>