<svg xmlns="http://www.w3.org/2000/svg" xmlns:xlink="http://www.w3.org/1999/xlink" width="80" zoomAndPan="magnify" viewBox="0 0 60 30.000001" height="40" preserveAspectRatio="xMidYMid meet" version="1.0"><defs><g/><clipPath id="65e4a66924"><path d="M 0.96875 0 L 59.03125 0 L 59.03125 29.03125 L 0.96875 29.03125 Z M 0.96875 0 " clip-rule="nonzero"/></clipPath><clipPath id="3771d936c8"><path d="M 1.261719 1.835938 L 55.476562 1.835938 L 55.476562 24.15625 L 1.261719 24.15625 Z M 1.261719 1.835938 " clip-rule="nonzero"/></clipPath><clipPath id="fca5cfcaf7"><path d="M 1.261719 1.835938 L 55 1.835938 L 55 24 L 1.261719 24 Z M 1.261719 1.835938 " clip-rule="nonzero"/></clipPath><clipPath id="da054bf984"><path d="M 1.261719 1.835938 L 55.476562 1.835938 L 55.476562 24.15625 L 1.261719 24.15625 Z M 1.261719 1.835938 " clip-rule="nonzero"/></clipPath><clipPath id="a3bb2ad543"><path d="M 0.257812 3 L 6 3 L 6 11 L 0.257812 11 Z M 0.257812 3 " clip-rule="nonzero"/></clipPath><clipPath id="8b0f53aae7"><rect x="0" width="39" y="0" height="15"/></clipPath><clipPath id="66e132a1f2"><rect x="0" width="56" y="0" height="25"/></clipPath></defs><g clip-path="url(#65e4a66924)"><path fill="#ffffff" d="M 0.96875 0 L 59.03125 0 L 59.03125 29.03125 L 0.96875 29.03125 Z M 0.96875 0 " fill-opacity="1" fill-rule="nonzero"/></g><g transform="matrix(1, 0, 0, 1, 1, 0.000000000000005662)"><g clip-path="url(#66e132a1f2)"><g clip-path="url(#3771d936c8)"><path fill="#000000" d="M 47.457031 24.128906 C 51.230469 24.128906 53.089844 23.949219 54.136719 22.90625 C 54.667969 22.375 54.984375 21.632812 55.160156 20.496094 C 55.328125 19.414062 55.363281 18.007812 55.363281 16.226562 L 55.363281 10.640625 C 55.363281 6.871094 55.183594 5.011719 54.136719 3.964844 C 54.109375 3.9375 54.085938 3.914062 54.058594 3.890625 L 54.054688 3.886719 L 53.074219 2.984375 L 53.070312 2.980469 C 52.546875 2.5 51.824219 2.207031 50.742188 2.039062 C 49.660156 1.871094 48.253906 1.835938 46.472656 1.835938 L 9.273438 1.835938 C 5.640625 1.835938 3.78125 2 2.710938 2.945312 C 2.671875 2.984375 2.632812 3.019531 2.59375 3.058594 C 2.0625 3.589844 1.746094 4.332031 1.570312 5.46875 C 1.402344 6.550781 1.367188 7.957031 1.367188 9.734375 L 1.367188 15.320312 C 1.367188 19.09375 1.542969 20.953125 2.59375 21.996094 L 2.59375 22 C 2.617188 22.023438 2.644531 22.046875 2.671875 22.074219 L 3.648438 22.976562 L 3.652344 22.980469 C 4.179688 23.464844 4.902344 23.757812 5.984375 23.925781 C 7.066406 24.09375 8.472656 24.128906 10.253906 24.128906 Z M 47.457031 24.128906 " fill-opacity="1" fill-rule="nonzero"/></g><g clip-path="url(#fca5cfcaf7)"><path fill="#f691cf" d="M 46.472656 1.984375 C 53.667969 1.984375 54.230469 2.546875 54.230469 9.734375 L 54.230469 15.320312 C 54.230469 22.511719 53.667969 23.074219 46.472656 23.074219 L 9.273438 23.074219 C 2.078125 23.074219 1.515625 22.511719 1.515625 15.320312 L 1.515625 9.734375 C 1.515625 2.546875 2.078125 1.984375 9.273438 1.984375 Z M 46.472656 1.984375 " fill-opacity="1" fill-rule="nonzero"/></g><g clip-path="url(#da054bf984)"><path stroke-linecap="butt" transform="matrix(0.0202829, 0, 0, 0.0202829, 1.368191, 1.836596)" fill="none" stroke-linejoin="miter" d="M 2223.764954 7.285901 C 2578.512175 7.285901 2606.244857 35.018583 2606.244857 389.380627 L 2606.244857 664.781564 C 2606.244857 1019.336197 2578.512175 1047.068879 2223.764954 1047.068879 L 389.748784 1047.068879 C 35.001563 1047.068879 7.268881 1019.336197 7.268881 664.781564 L 7.268881 389.380627 C 7.268881 35.018583 35.001563 7.285901 389.748784 7.285901 Z M 2223.764954 7.285901 " stroke="#000000" stroke-width="10" stroke-opacity="1" stroke-miterlimit="10"/></g><g transform="matrix(1, 0, 0, 1, 9, 5)"><g clip-path="url(#8b0f53aae7)"><g clip-path="url(#a3bb2ad543)"><g fill="#000000" fill-opacity="1"><g transform="translate(0.303557, 10.225549)"><g><path d="M 2.3125 -5.625 L 2.3125 -4.203125 L 4.59375 -4.203125 L 4.59375 -2.890625 L 2.3125 -2.890625 L 2.3125 -1.359375 L 4.890625 -1.359375 L 4.890625 0 L 0.609375 0 L 0.609375 -6.984375 L 4.890625 -6.984375 L 4.890625 -5.625 Z M 2.3125 -5.625 "/></g></g></g></g><g fill="#000000" fill-opacity="1"><g transform="translate(5.686057, 10.225549)"><g><path d="M 0.28125 -2.78125 C 0.28125 -3.351562 0.382812 -3.851562 0.59375 -4.28125 C 0.8125 -4.71875 1.109375 -5.050781 1.484375 -5.28125 C 1.859375 -5.519531 2.273438 -5.640625 2.734375 -5.640625 C 3.097656 -5.640625 3.429688 -5.5625 3.734375 -5.40625 C 4.035156 -5.25 4.269531 -5.039062 4.4375 -4.78125 L 4.4375 -7.359375 L 6.140625 -7.359375 L 6.140625 0 L 4.4375 0 L 4.4375 -0.796875 C 4.28125 -0.523438 4.050781 -0.3125 3.75 -0.15625 C 3.457031 0 3.117188 0.078125 2.734375 0.078125 C 2.273438 0.078125 1.859375 -0.0351562 1.484375 -0.265625 C 1.109375 -0.503906 0.8125 -0.84375 0.59375 -1.28125 C 0.382812 -1.71875 0.28125 -2.21875 0.28125 -2.78125 Z M 4.4375 -2.78125 C 4.4375 -3.195312 4.316406 -3.53125 4.078125 -3.78125 C 3.847656 -4.03125 3.5625 -4.15625 3.21875 -4.15625 C 2.882812 -4.15625 2.597656 -4.03125 2.359375 -3.78125 C 2.128906 -3.539062 2.015625 -3.207031 2.015625 -2.78125 C 2.015625 -2.363281 2.128906 -2.03125 2.359375 -1.78125 C 2.597656 -1.53125 2.882812 -1.40625 3.21875 -1.40625 C 3.5625 -1.40625 3.847656 -1.523438 4.078125 -1.765625 C 4.316406 -2.015625 4.4375 -2.351562 4.4375 -2.78125 Z M 4.4375 -2.78125 "/></g></g></g><g fill="#000000" fill-opacity="1"><g transform="translate(12.44154, 10.225549)"><g><path d="M 1.46875 -6.125 C 1.175781 -6.125 0.929688 -6.210938 0.734375 -6.390625 C 0.546875 -6.566406 0.453125 -6.785156 0.453125 -7.046875 C 0.453125 -7.304688 0.546875 -7.523438 0.734375 -7.703125 C 0.929688 -7.878906 1.175781 -7.96875 1.46875 -7.96875 C 1.757812 -7.96875 2 -7.878906 2.1875 -7.703125 C 2.382812 -7.523438 2.484375 -7.304688 2.484375 -7.046875 C 2.484375 -6.785156 2.382812 -6.566406 2.1875 -6.390625 C 2 -6.210938 1.757812 -6.125 1.46875 -6.125 Z M 2.3125 -5.546875 L 2.3125 0 L 0.609375 0 L 0.609375 -5.546875 Z M 2.3125 -5.546875 "/></g></g></g><g fill="#000000" fill-opacity="1"><g transform="translate(15.376543, 10.225549)"><g><path d="M 4.015625 0 L 2.3125 -2.328125 L 2.3125 0 L 0.609375 0 L 0.609375 -7.359375 L 2.3125 -7.359375 L 2.3125 -3.296875 L 4 -5.546875 L 6.09375 -5.546875 L 3.796875 -2.765625 L 6.125 0 Z M 4.015625 0 "/></g></g></g><g fill="#000000" fill-opacity="1"><g transform="translate(21.525129, 10.225549)"><g><path d="M 3.71875 -1.4375 L 3.71875 0 L 2.84375 0 C 2.226562 0 1.75 -0.148438 1.40625 -0.453125 C 1.0625 -0.753906 0.890625 -1.25 0.890625 -1.9375 L 0.890625 -4.140625 L 0.203125 -4.140625 L 0.203125 -5.546875 L 0.890625 -5.546875 L 0.890625 -6.90625 L 2.59375 -6.90625 L 2.59375 -5.546875 L 3.703125 -5.546875 L 3.703125 -4.140625 L 2.59375 -4.140625 L 2.59375 -1.90625 C 2.59375 -1.738281 2.628906 -1.617188 2.703125 -1.546875 C 2.785156 -1.472656 2.921875 -1.4375 3.109375 -1.4375 Z M 3.71875 -1.4375 "/></g></g></g><g fill="#000000" fill-opacity="1"><g transform="translate(25.56449, 10.225549)"><g><path d="M 5.859375 -2.859375 C 5.859375 -2.703125 5.847656 -2.539062 5.828125 -2.375 L 1.96875 -2.375 C 2 -2.019531 2.109375 -1.75 2.296875 -1.5625 C 2.492188 -1.382812 2.738281 -1.296875 3.03125 -1.296875 C 3.445312 -1.296875 3.738281 -1.476562 3.90625 -1.84375 L 5.71875 -1.84375 C 5.625 -1.476562 5.457031 -1.148438 5.21875 -0.859375 C 4.976562 -0.566406 4.675781 -0.335938 4.3125 -0.171875 C 3.945312 -0.00390625 3.535156 0.078125 3.078125 0.078125 C 2.535156 0.078125 2.050781 -0.0351562 1.625 -0.265625 C 1.207031 -0.492188 0.878906 -0.820312 0.640625 -1.25 C 0.398438 -1.6875 0.28125 -2.195312 0.28125 -2.78125 C 0.28125 -3.351562 0.394531 -3.851562 0.625 -4.28125 C 0.863281 -4.71875 1.195312 -5.050781 1.625 -5.28125 C 2.050781 -5.519531 2.535156 -5.640625 3.078125 -5.640625 C 3.617188 -5.640625 4.097656 -5.523438 4.515625 -5.296875 C 4.929688 -5.066406 5.257812 -4.742188 5.5 -4.328125 C 5.738281 -3.910156 5.859375 -3.421875 5.859375 -2.859375 Z M 4.109375 -3.3125 C 4.109375 -3.601562 4.007812 -3.832031 3.8125 -4 C 3.613281 -4.175781 3.363281 -4.265625 3.0625 -4.265625 C 2.78125 -4.265625 2.539062 -4.179688 2.34375 -4.015625 C 2.144531 -3.847656 2.023438 -3.613281 1.984375 -3.3125 Z M 4.109375 -3.3125 "/></g></g></g><g fill="#000000" fill-opacity="1"><g transform="translate(31.693174, 10.225549)"><g><path d="M 0.28125 -2.78125 C 0.28125 -3.351562 0.382812 -3.851562 0.59375 -4.28125 C 0.8125 -4.71875 1.109375 -5.050781 1.484375 -5.28125 C 1.859375 -5.519531 2.273438 -5.640625 2.734375 -5.640625 C 3.097656 -5.640625 3.429688 -5.5625 3.734375 -5.40625 C 4.035156 -5.25 4.269531 -5.039062 4.4375 -4.78125 L 4.4375 -7.359375 L 6.140625 -7.359375 L 6.140625 0 L 4.4375 0 L 4.4375 -0.796875 C 4.28125 -0.523438 4.050781 -0.3125 3.75 -0.15625 C 3.457031 0 3.117188 0.078125 2.734375 0.078125 C 2.273438 0.078125 1.859375 -0.0351562 1.484375 -0.265625 C 1.109375 -0.503906 0.8125 -0.84375 0.59375 -1.28125 C 0.382812 -1.71875 0.28125 -2.21875 0.28125 -2.78125 Z M 4.4375 -2.78125 C 4.4375 -3.195312 4.316406 -3.53125 4.078125 -3.78125 C 3.847656 -4.03125 3.5625 -4.15625 3.21875 -4.15625 C 2.882812 -4.15625 2.597656 -4.03125 2.359375 -3.78125 C 2.128906 -3.539062 2.015625 -3.207031 2.015625 -2.78125 C 2.015625 -2.363281 2.128906 -2.03125 2.359375 -1.78125 C 2.597656 -1.53125 2.882812 -1.40625 3.21875 -1.40625 C 3.5625 -1.40625 3.847656 -1.523438 4.078125 -1.765625 C 4.316406 -2.015625 4.4375 -2.351562 4.4375 -2.78125 Z M 4.4375 -2.78125 "/></g></g></g></g></g></g></g></svg>