<?xml version="1.0" encoding="UTF-8"?>
<svg id="Layer_1" data-name="Layer 1" xmlns="http://www.w3.org/2000/svg" xmlns:xlink="http://www.w3.org/1999/xlink" viewBox="0 0 554.67 401.33">
  <defs>
    <style>
      .cls-1 {
        fill: none;
      }

      .cls-2 {
        clip-path: url(#clippath-1);
      }

      .cls-3 {
        clip-path: url(#clippath);
      }

      .cls-4 {
        fill: #493427;
      }
    </style>
    <clipPath id="clippath">
      <rect class="cls-1" width="554.67" height="401.33"/>
    </clipPath>
    <clipPath id="clippath-1">
      <rect class="cls-1" x=".01" y="57.33" width="430.66" height="293.33"/>
    </clipPath>
  </defs>
  <g class="cls-3">
    <g>
      <g class="cls-2">
        <path class="cls-4" d="M289.28,325.44c.53-.81,1.13-1.08,1.79-.81.67.28.73.81.21,1.6-4.81,6.68-10.89,12.22-18.23,16.63-7.33,4.4-15.81,6.6-25.42,6.6-11.47,0-20.35-3.41-26.63-10.21-6.27-6.81-9.53-15.81-9.79-27.02h-2c-9.88,0-17.89-2.27-24.02-6.81-6.14-4.54-9.21-10.81-9.21-18.81,0-4.8,1.8-9.88,5.4-15.21,3.61-5.34,8.08-10.76,13.42-16.23,5.33-5.47,10.73-10.8,16.21-16,5.47-5.21,10.01-10.07,13.6-14.6,3.61-4.54,5.42-8.55,5.42-12.02,0-5.07-2.67-7.6-8-7.6-3.47,1.07-7.08,2.07-10.81,3-3.74.93-7.47,1.67-11.21,2.21-1.33.27-2,0-2-.79s.53-1.34,1.6-1.63c17.34-3.46,32.35-9.46,45.02-18,12.68-8.54,24.02-18.42,34.02-29.63,10.01-11.21,19.42-22.75,28.23-34.63,8.82-11.89,17.82-22.9,27.02-33.04,9.21-10.14,19.34-18.34,30.42-24.6,11.08-6.28,24.1-9.42,39.06-9.42,7.73,0,13.8,2.07,18.21,6.21,4.4,4.13,7,9.26,7.79,15.4.8,6.14-.13,12.35-2.79,18.63-2.67,6.28-7.01,11.49-13.02,15.63-6,4.13-13.67,6.19-23,6.19-7.75,0-13.29-2.26-16.63-6.79-3.33-4.54-4.6-9.75-3.81-15.63.8-5.88,3.61-11.07,8.42-15.6,4.8-4.54,11.34-6.81,19.63-6.81,1.07,0,1.6.33,1.6,1s-.54,1-1.6,1c-7.47,0-13.41,2.07-17.81,6.21-4.41,4.14-7.01,8.81-7.81,14.02-.81,5.2.26,9.86,3.19,14,2.94,4.14,7.89,6.21,14.83,6.21,8.8,0,16.01-1.93,21.6-5.79,5.61-3.88,9.68-8.68,12.21-14.42,2.54-5.75,3.48-11.42,2.81-17.02-.67-5.61-3.01-10.34-7.02-14.21-4-3.88-9.6-5.81-16.79-5.81-11.75,0-21.9,2.68-30.44,8.02-8.54,5.33-16.35,12.34-23.42,21.02-7.07,8.67-14.21,18.34-21.42,29.02-7.21,10.67-15.29,21.34-24.23,32.02-8.93,10.67-19.6,20.6-32.02,29.81-12.41,9.21-27.55,16.75-45.44,22.63,4.26,1.07,7.13,3.47,8.6,7.21,1.47,3.74,2.21,7.07,2.21,10,0,6.14-2.54,12.42-7.6,18.83-5.07,6.41-11.01,12.88-17.81,19.42-6.81,6.53-12.75,12.86-17.83,19-5.07,6.14-7.6,12.15-7.6,18.02,0,9.33,7.61,14,22.83,14h2c0-9.33,2.53-19.2,7.6-29.6,5.07-10.42,11.6-20.36,19.6-29.83,8.01-9.47,16.55-17.15,25.63-23.02,9.08-5.88,17.76-8.81,26.02-8.81,5.88,0,10.07,1.47,12.6,4.42,2.54,2.93,3.81,6.93,3.81,12,0,5.61-2.41,12.35-7.21,20.23-4.81,7.86-11.35,15.8-19.63,23.81-8.27,8-17.6,15-28.02,21-10.41,6.01-21.34,9.82-32.81,11.42-.27,1.07-.4,2.2-.4,3.4v3.81c0,8.8,2.67,15.74,8,20.81,5.33,5.07,12.4,7.6,21.21,7.6,9.34,0,17.42-2,24.23-6,6.8-4,12.61-9.2,17.42-15.6ZM324.51,68.42c.8,0,1.21.41,1.21,1.21s-.41,1.19-1.21,1.19c-14.68,0-28.1,4.21-40.25,12.63-12.14,8.41-23.55,19.61-34.23,33.63-10.67,14.02-21.27,29.3-31.81,45.85-10.54,16.54-21.62,33.16-33.23,49.83-11.61,16.68-24.43,32.03-38.44,46.04s-29.68,25.21-47.02,33.63c-17.35,8.4-37.24,12.6-59.67,12.6-14.67,0-24.94-2.67-30.81-8-5.88-5.34-8.81-10.96-8.81-16.83s2-10.46,6-14.6c4-4.14,8.27-6.21,12.81-6.21,5.88,0,8.81,2.41,8.81,7.21,0,3.74-1.6,6.74-4.81,9.02-3.2,2.27-6.4,4.33-9.6,6.21-3.2,1.86-4.79,4.53-4.79,8s2.67,6.46,8,9,13.07,3.81,23.21,3.81c15.48,0,30.09-3.67,43.83-11,13.75-7.34,26.9-17.09,39.44-29.23,12.54-12.15,24.61-25.76,36.23-40.83,11.61-15.08,23.09-30.43,34.44-46.04,11.34-15.63,22.76-30.44,34.23-44.44,11.47-14.01,23.28-26.22,35.42-36.63,12.15-10.42,24.76-17.76,37.83-22.04-11.21,1.07-24.82,2.81-40.83,5.21-16.02,2.41-32.83,5.68-50.44,9.81-17.61,4.14-34.96,9.41-52.04,15.81-17.08,6.41-32.64,14.01-46.65,22.81-14,8.81-25.14,18.95-33.42,30.44-8.28,11.47-12.42,24.55-12.42,39.23s4.53,25.49,13.6,32.44c9.08,6.93,19.09,10.4,30.04,10.4,8.54,0,16.28-1.73,23.21-5.21.54-.53,1.01-.46,1.4.21.4.67.34,1.14-.19,1.4-7.21,4-15.35,6-24.42,6-7.75,0-15.16-1.59-22.23-4.79-7.07-3.21-12.81-8.21-17.21-15.02-4.41-6.8-6.6-15.28-6.6-25.42,0-14.94,4.13-28.22,12.4-39.83,8.28-11.61,19.29-21.89,33.04-30.83,13.75-8.94,29.09-16.61,46.04-23.02,16.94-6.4,34.22-11.8,51.83-16.21,17.61-4.4,34.42-7.86,50.44-10.4,16.01-2.54,30.03-4.34,42.04-5.42,12.01-1.07,20.55-1.6,25.63-1.6ZM290.89,221.36c-6.41,0-13.34,2.81-20.81,8.42-7.47,5.6-14.75,12.87-21.83,21.81-7.07,8.93-13.28,18.47-18.63,28.63-5.33,10.14-8.8,19.74-10.4,28.81,10.94-1.6,21.48-5.33,31.63-11.21,10.14-5.88,19.21-12.68,27.21-20.42,8.01-7.73,14.35-15.41,19.02-23.02,4.68-7.61,7.02-14.08,7.02-19.42,0-9.07-4.41-13.6-13.21-13.6Z"/>
      </g>
      <path class="cls-4" d="M460.22,176.92c-7.47,0-14.08-.86-19.81-2.6-5.74-1.73-10.47-3.94-14.21-6.6-13.08,1.86-25.43,6.14-37.04,12.81-11.61,6.67-21.76,14.81-30.44,24.42-8.67,9.61-15.47,19.82-20.42,30.63-4.93,10.81-7.4,21.28-7.4,31.42,0,8.81,1.53,16.95,4.6,24.44,3.07,7.47,8.07,13.47,15,18,6.94,4.54,16.55,6.81,28.83,6.81,13.34,0,25.89-2.94,37.63-8.81,11.75-5.88,22.16-13.42,31.23-22.63,9.08-9.21,16.22-18.88,21.42-29.02,5.21-10.14,7.81-19.48,7.81-28.02,0-9.33-2.87-16.4-8.6-21.21-5.74-4.8-12.47-7.21-20.21-7.21-11.21,0-21.29,2.54-30.23,7.6-8.95,5.07-16.56,11.48-22.83,19.23-6.27,7.74-11.06,15.74-14.4,24.02-3.33,8.27-5,15.6-5,22s1.8,11.68,5.4,15.02c3.59,3.33,8.33,5,14.21,5,1.07,0,1.53.33,1.4,1-.13.67-1.26,1-3.4,1-6.93,0-12.74-2.67-17.42-8-4.67-5.34-7-12.42-7-21.23,0-7.73,1.93-15.67,5.79-23.81,3.88-8.14,9.21-15.67,16.02-22.6,6.8-6.94,14.68-12.61,23.63-17.02,8.94-4.42,18.35-6.63,28.23-6.63s18.81,2.74,26.02,8.21c7.21,5.47,10.81,13.68,10.81,24.63,0,9.07-2.6,18.81-7.81,29.23-5.21,10.41-12.42,20.35-21.63,29.83-9.21,9.47-20.02,17.21-32.44,23.21-12.41,6-25.81,9-40.23,9s-26.21-2.54-35.42-7.6c-9.21-5.07-15.95-11.88-20.23-20.42-4.27-8.54-6.4-17.88-6.4-28.02s2.67-21.01,8-31.81c5.34-10.82,12.82-20.9,22.42-30.23,9.61-9.34,20.95-17.22,34.02-23.63,13.08-6.4,27.5-10.54,43.25-12.42-6.41-6.14-9.94-13.67-10.6-22.6-.67-8.94,1.26-18.28,5.79-28.02,4.54-9.75,11.28-18.9,20.23-27.44,8.94-8.54,19.82-15.48,32.63-20.81,12.8-5.33,27.35-8,43.65-8,11.73,0,20.54,2.74,26.42,8.21,5.88,5.46,9.07,12.27,9.6,20.42.53,8.14-1.41,16.35-5.81,24.63-4.41,8.27-11.08,15.14-20.02,20.6-8.93,5.47-19.94,8.21-33.02,8.21-8.27,0-14.54-2.07-18.81-6.21-4.27-4.14-6.67-9.28-7.21-15.42-.53-6.14.8-12.21,4-18.21,3.21-6.01,8.15-11.08,14.81-15.21,6.68-4.14,14.96-6.21,24.83-6.21,1.33,0,2,.41,2,1.21s-.67,1.19-2,1.19c-9.35,0-17.16,1.87-23.44,5.6-6.27,3.74-10.87,8.41-13.81,14.02-2.93,5.6-4.27,11.2-4,16.81.28,5.6,2.21,10.27,5.81,14,3.61,3.74,9.01,5.6,16.21,5.6,10.42,0,19.69-2.59,27.83-7.79,8.14-5.21,14.54-11.61,19.21-19.21,4.68-7.61,7.21-15.22,7.6-22.83.4-7.61-1.8-14.01-6.6-19.21-4.81-5.21-12.68-7.81-23.6-7.81-12.82,0-24.7,2.67-35.65,8-10.95,5.33-20.49,12.14-28.63,20.42-8.14,8.28-14.48,17.16-19.02,26.63-4.53,9.47-6.93,18.55-7.19,27.23-.27,8.67,2.14,15.81,7.21,21.42h7.6c12,0,20.27,1.07,24.81,3.21,4.54,2.13,6.21,4.26,5,6.4-1.2,2.14-4.2,3.21-9,3.21ZM439.4,166.5h-5.21c2.93,2.41,6.53,4.34,10.79,5.81,4.28,1.46,9.35,2.19,15.23,2.19,3.47,0,5.47-.67,6-2,.54-1.33-1.2-2.67-5.21-4-4-1.33-11.2-2-21.6-2Z"/>
    </g>
  </g>
</svg>