<svg xmlns="http://www.w3.org/2000/svg" xmlns:xlink="http://www.w3.org/1999/xlink" width="40" zoomAndPan="magnify" viewBox="0 0 30 60" height="80" preserveAspectRatio="xMidYMid meet" version="1.0"><defs><clipPath id="024a544e8d"><path d="M 0 0.875 L 29.445312 0.875 L 29.445312 57 L 0 57 Z M 0 0.875 " clip-rule="nonzero"/></clipPath><clipPath id="f1965341cf"><path d="M 29.445312 42.277344 C 29.445312 50.40625 22.855469 57 14.722656 57 C 6.589844 57 0 50.40625 0 42.277344 L 0 15.597656 C 0 7.46875 6.589844 0.875 14.722656 0.875 C 22.855469 0.875 29.445312 7.46875 29.445312 15.597656 Z M 29.445312 42.277344 " clip-rule="nonzero"/></clipPath><clipPath id="8575ee7ae1"><path d="M 0.699219 2.484375 L 28.757812 2.484375 L 28.757812 16.648438 L 0.699219 16.648438 Z M 0.699219 2.484375 " clip-rule="nonzero"/></clipPath><clipPath id="c90c3abdd7"><path d="M 11.921875 11.828125 L 17.535156 11.828125 L 17.535156 17.53125 L 11.921875 17.53125 Z M 11.921875 11.828125 " clip-rule="nonzero"/></clipPath><clipPath id="ba93ab0fa8"><rect x="0" width="30" y="0" height="60"/></clipPath></defs><rect x="-3" width="36" fill="#ffffff" y="-6" height="72" fill-opacity="1"/><g transform="matrix(1, 0, 0, 1, 0, -0.000000000000001479)"><g clip-path="url(#ba93ab0fa8)"><g clip-path="url(#024a544e8d)"><g clip-path="url(#f1965341cf)"><path stroke-linecap="butt" transform="matrix(0, 0.0890847, -0.0890847, 0, 29.445371, 0.875408)" fill="none" stroke-linejoin="miter" d="M 464.747852 0.000651437 C 555.997008 0.000651437 630.013624 73.973418 630.013624 165.266423 C 630.013624 256.559429 555.997008 330.532195 464.747852 330.532195 L 165.261192 330.532195 C 74.012035 330.532195 -0.00458031 256.559429 -0.00458031 165.266423 C -0.00458031 73.973418 74.012035 0.000651437 165.261192 0.000651437 Z M 464.747852 0.000651437 " stroke="#493427" stroke-width="67.351608" stroke-opacity="1" stroke-miterlimit="4"/></g></g><g clip-path="url(#8575ee7ae1)"><path fill="#493427" d="M 24.617188 6.597656 C 21.972656 3.953125 18.453125 2.496094 14.707031 2.496094 C 10.964844 2.496094 7.445312 3.953125 4.800781 6.597656 C 2.152344 9.242188 0.699219 12.761719 0.699219 16.507812 C 0.699219 16.578125 0.753906 16.632812 0.824219 16.632812 L 8.539062 16.632812 C 8.609375 16.632812 8.667969 16.578125 8.667969 16.507812 C 8.667969 13.175781 11.378906 10.464844 14.707031 10.464844 C 18.039062 10.464844 20.75 13.175781 20.75 16.507812 C 20.75 16.578125 20.808594 16.632812 20.878906 16.632812 L 28.59375 16.632812 C 28.664062 16.632812 28.71875 16.578125 28.71875 16.507812 C 28.71875 12.761719 27.261719 9.242188 24.617188 6.597656 Z M 21.347656 9.871094 C 19.574219 8.097656 17.21875 7.121094 14.707031 7.121094 C 12.199219 7.121094 9.84375 8.097656 8.070312 9.871094 C 6.332031 11.609375 5.359375 13.917969 5.328125 16.378906 L 4.039062 16.378906 C 4.109375 10.554688 8.867188 5.835938 14.707031 5.835938 C 20.550781 5.835938 25.308594 10.554688 25.375 16.378906 L 24.089844 16.378906 C 24.058594 13.917969 23.085938 11.609375 21.347656 9.871094 Z M 23.835938 16.378906 L 22.546875 16.378906 C 22.480469 12.113281 18.988281 8.664062 14.707031 8.664062 C 10.429688 8.664062 6.9375 12.113281 6.871094 16.378906 L 5.582031 16.378906 C 5.652344 11.402344 9.71875 7.378906 14.707031 7.378906 C 19.699219 7.378906 23.765625 11.40625 23.835938 16.378906 Z M 22.4375 8.777344 C 20.375 6.714844 17.628906 5.582031 14.710938 5.582031 C 11.789062 5.582031 9.042969 6.714844 6.980469 8.777344 C 4.949219 10.8125 3.816406 13.503906 3.785156 16.378906 L 2.5 16.378906 C 2.566406 9.703125 8.019531 4.292969 14.707031 4.292969 C 21.398438 4.292969 26.851562 9.703125 26.917969 16.378906 L 25.632812 16.378906 C 25.601562 13.503906 24.46875 10.8125 22.4375 8.777344 Z M 14.707031 10.207031 C 11.277344 10.207031 8.480469 12.964844 8.410156 16.378906 L 7.125 16.378906 C 7.195312 12.253906 10.570312 8.921875 14.707031 8.921875 C 18.847656 8.921875 22.222656 12.253906 22.292969 16.378906 L 21.007812 16.378906 C 20.9375 12.964844 18.140625 10.207031 14.707031 10.207031 Z M 27.175781 16.378906 C 27.144531 13.09375 25.851562 10.011719 23.527344 7.6875 C 21.175781 5.335938 18.042969 4.039062 14.710938 4.039062 C 11.375 4.039062 8.242188 5.332031 5.890625 7.6875 C 3.566406 10.011719 2.273438 13.09375 2.242188 16.378906 L 0.953125 16.378906 C 1.023438 8.851562 7.167969 2.75 14.707031 2.75 C 22.25 2.75 28.394531 8.851562 28.464844 16.378906 Z M 27.175781 16.378906 " fill-opacity="1" fill-rule="nonzero"/></g><g clip-path="url(#c90c3abdd7)"><path fill="#8d7359" d="M 11.921875 14.671875 C 12.257812 14.640625 12.59375 14.609375 12.929688 14.578125 C 13.152344 14.558594 13.375 14.523438 13.589844 14.46875 C 13.828125 14.417969 14.035156 14.308594 14.207031 14.132812 C 14.378906 13.960938 14.484375 13.753906 14.53125 13.515625 C 14.613281 13.15625 14.664062 12.796875 14.683594 12.429688 C 14.695312 12.269531 14.703125 12.109375 14.714844 11.945312 C 14.710938 11.910156 14.722656 11.878906 14.742188 11.847656 C 14.765625 12.164062 14.789062 12.46875 14.816406 12.773438 C 14.835938 13.0625 14.886719 13.34375 14.96875 13.621094 C 15.082031 14.042969 15.347656 14.316406 15.769531 14.433594 C 16.085938 14.527344 16.40625 14.582031 16.734375 14.601562 C 16.976562 14.625 17.21875 14.636719 17.460938 14.652344 C 17.488281 14.652344 17.515625 14.664062 17.539062 14.683594 L 16.855469 14.734375 C 16.550781 14.753906 16.246094 14.796875 15.949219 14.863281 C 15.382812 14.984375 15.042969 15.324219 14.921875 15.886719 C 14.84375 16.285156 14.792969 16.691406 14.773438 17.097656 C 14.761719 17.230469 14.753906 17.363281 14.746094 17.515625 C 14.714844 17.449219 14.703125 17.382812 14.710938 17.308594 C 14.695312 16.839844 14.640625 16.375 14.554688 15.914062 C 14.449219 15.429688 14.203125 15.066406 13.703125 14.914062 C 13.578125 14.875 13.445312 14.847656 13.316406 14.824219 C 12.878906 14.753906 12.4375 14.707031 11.992188 14.6875 L 11.921875 14.683594 Z M 11.921875 14.671875 " fill-opacity="1" fill-rule="nonzero"/></g></g></g></svg>