<?xml version="1.0" encoding="UTF-8"?>
<svg id="Layer_1" data-name="Layer 1" xmlns="http://www.w3.org/2000/svg" viewBox="0 0 314.05 161.52">
  <defs>
    <style>
      .cls-1 {
        fill: #91785f;
      }

      .cls-2 {
        fill: #584539;
      }
    </style>
  </defs>
  <path class="cls-2" d="M89,158.34l-88.74.15c-.72-10.36.1-20.24,1.94-30.46C15.69,56.87,76,4,147.92.28c90.6-5.33,167.16,67.16,166.11,158.16l-89.33.03c.19-38.12-29.92-68.65-67.11-68.98s-68.69,29.29-68.59,68.86ZM296.8,155.4c6.14.28,9.79.26,14.3-.18-1.08-69.18-47.71-129.13-114.38-147.02-47.07-12.63-96.96-2.46-135.76,28.21C25.57,64.38,2.59,108.19,2.47,155.39l14.38.12c.61-52.7,30.77-100.71,78.41-124.1,38.98-19.14,85.39-18.97,124.08.47,47.2,23.71,76.63,70.49,77.45,123.52ZM241.95,68.88c24.2,23.1,36.82,53.58,37.58,86.53l14.14.05c-.33-48.34-26.65-91.64-66.04-115.51-43.2-26.18-96.72-26.17-139.45-1.25C46.37,63.09,20.31,106.86,19.72,155.19c5.26.56,9.62.55,14.52.04.45-48.38,30.11-91.14,72.55-109.92,46.15-20.42,98.84-11.1,135.16,23.58ZM139.52,53.38c63.97-10.43,121.55,37.61,122.59,102.04l14.29-.02c-1.04-60.79-47.05-111.05-107.09-117.3-69.78-7.27-131.12,46.91-132.3,117.3l14.47-.06c1.01-50.7,37.73-93.76,88.05-101.96ZM244.73,155.46l14.43-.13c-1.25-57.04-47.69-101.19-103.44-100.63-54.93.55-100.79,45.19-101.35,100.91l14.42-.32c1.04-48.67,41.18-86.45,88.76-86.1,47.13.35,85.94,37.86,87.18,86.27ZM227.58,155.58l14.24-.16c-.83-25.4-11.66-47.92-31.17-63.99-25.56-21.06-60.86-25.28-91.32-10.53-27.5,13.32-47.16,42.06-47.63,74.43,5.31.32,9.58.32,14.48-.05,1.17-39.19,33.32-69.23,71.42-68.84,37.85.39,68.63,30.35,69.98,69.13Z"/>
  <path class="cls-1" d="M157.19,161.52l-2.37-11.74c-1.28-6.32-6.23-10.41-12.54-11.22l-15.14-1.95c8.22-1.55,24.5.39,27.23-11.41l2.82-12.2,3.09,13c2.44,10.28,19.44,9.34,27.99,10.65l-17.12,2.05c-6.37.76-10.7,5.97-11.83,11.83l-2.12,11.01Z"/>
</svg>