<?xml version="1.0" encoding="UTF-8"?><svg id="Layer_1" xmlns="http://www.w3.org/2000/svg" viewBox="0 0 1148.9 466.8"><defs><style>.cls-1{fill:#fff;}</style></defs><path class="cls-1" d="M280.9,157.3c3.7-11.6,5.7-24.1,5.7-36.9C286.7,53.9,233.3,0,167.6,0S48.5,53.9,48.5,120.3s2.3,27.3,6.7,39.7C22.9,172.3,0,203.8,0,240.6s38.2,86.1,85.3,86.1,12.8-.8,18.9-2.2l-49.2-49.2c-2.9-2.9-2.9-7.7,0-10.6,2.9-2.9,7.7-2.9,10.6,0l54.5,54.5c13-5.9,24.2-14.9,32.8-26.1l-.4-143.5c0-8.3,6.7-15,15-15h0c8.3,0,15,6.7,15,15l.3,135c3,4.9,6.4,9.5,10.3,13.7l75.5-75.5c2.9-2.9,7.7-2.9,10.6,0,2.9,2.9,2.9,7.7,0,10.6l-75,75c15,11.5,34,18.4,54.5,18.4,48.7,0,88.2-38.6,88.2-86.1s-28-73.8-66-83.4Z"/><path class="cls-1" d="M170.5,240.6s0,0,0,0c0,0,0,0,0,0,0,0,0,0,0,0Z"/><path class="cls-1" d="M193.1,298.2l-10.2,10.2v-23.9c-7.9-12.8-12.3-27.8-12.3-43.9,0,19.8-6.6,38-17.7,52.5l.2,59.1-33-33c-5.1,2.3-10.4,4.1-15.9,5.3l44.7,44.7c1.2,1.2,2.7,1.9,4.2,2.1l.2,80.5c0,8.3,6.7,15,15,15h0c8.3,0,15-6.8,15-15l-.3-124.1c1.4-.3,2.8-1,3.9-2.1l17.3-17.3c-4-3.1-7.7-6.5-11.1-10.1Z"/><path class="cls-1" d="M401.6,330.7V81.5h-89V30.8h238.3v50.7h-88.8v249.2h-60.6Z"/><path class="cls-1" d="M621.6,330.7h-57.5V113.4h53.4v30.9c9.1-14.6,17.4-24.2,24.7-28.8,7.3-4.6,15.6-7,24.9-7s25.7,3.6,37.8,10.8l-17.8,50.1c-9.7-6.3-18.7-9.4-27-9.4s-14.9,2.2-20.5,6.6c-5.6,4.4-10,12.4-13.2,24-3.2,11.6-4.8,35.9-4.8,72.8v67.1Z"/><path class="cls-1" d="M855.4,261.6l57.3,9.6c-7.4,21-19,37-34.9,48-15.9,11-35.8,16.5-59.6,16.5-37.8,0-65.7-12.3-83.9-37-14.3-19.8-21.5-44.7-21.5-74.9s9.4-64.2,28.2-84.6c18.8-20.4,42.6-30.6,71.4-30.6s57.8,10.7,76.5,32c18.7,21.3,27.6,54,26.8,98.1h-144c.4,17.1,5,30.3,13.9,39.8,8.9,9.5,19.9,14.2,33.1,14.2s16.6-2.5,22.7-7.4,10.8-12.8,13.9-23.7ZM858.7,203.5c-.4-16.6-4.7-29.3-12.9-38-8.2-8.7-18.1-13-29.9-13s-22.9,4.6-31.1,13.7c-8.2,9.1-12.2,21.6-12.1,37.2h85.9Z"/><path class="cls-1" d="M1088.5,261.6l57.3,9.6c-7.4,21-19,37-34.9,48-15.9,11-35.8,16.5-59.6,16.5-37.8,0-65.7-12.3-83.9-37-14.3-19.8-21.5-44.7-21.5-74.9s9.4-64.2,28.2-84.6c18.8-20.4,42.6-30.6,71.4-30.6s57.8,10.7,76.5,32c18.7,21.3,27.6,54,26.8,98.1h-144c.4,17.1,5,30.3,13.9,39.8,8.9,9.5,19.9,14.2,33.1,14.2s16.6-2.5,22.7-7.4,10.8-12.8,13.9-23.7ZM1091.7,203.5c-.4-16.6-4.7-29.3-12.9-38-8.2-8.7-18.1-13-29.9-13s-22.9,4.6-31.1,13.7c-8.2,9.1-12.2,21.6-12.1,37.2h85.9Z"/><path class="cls-1" d="M403,422.9v-87.6h28.4c10.8,0,17.8.4,21,1.3,5,1.3,9.2,4.2,12.6,8.6,3.4,4.4,5.1,10.1,5.1,17.1s-1,9.9-2.9,13.6c-2,3.7-4.4,6.5-7.4,8.6-3,2.1-6.1,3.5-9.2,4.2-4.2.8-10.3,1.3-18.3,1.3h-11.5v33h-17.7ZM420.7,350.1v24.9h9.7c7,0,11.6-.5,14-1.4,2.4-.9,4.2-2.4,5.5-4.3,1.3-2,2-4.2,2-6.8s-.9-5.8-2.8-7.9c-1.9-2.1-4.2-3.4-7.1-3.9-2.1-.4-6.4-.6-12.7-.6h-8.5Z"/><path class="cls-1" d="M501.2,335.3v32.2c5.4-6.3,11.9-9.5,19.4-9.5s7.4.7,10.5,2.2c3.1,1.4,5.4,3.3,7,5.5,1.6,2.2,2.6,4.7,3.2,7.4.6,2.7.9,6.9.9,12.6v37.2h-16.8v-33.5c0-6.7-.3-10.9-1-12.7-.6-1.8-1.8-3.2-3.4-4.3-1.6-1.1-3.6-1.6-6.1-1.6s-5.3.7-7.5,2c-2.2,1.4-3.8,3.4-4.8,6.1-1,2.7-1.5,6.8-1.5,12.1v31.8h-16.8v-87.6h16.8Z"/><path class="cls-1" d="M555.4,390.2c0-5.6,1.4-11,4.1-16.2,2.7-5.2,6.6-9.2,11.7-12,5-2.7,10.7-4.1,16.9-4.1,9.6,0,17.5,3.1,23.6,9.4,6.1,6.2,9.2,14.1,9.2,23.6s-3.1,17.6-9.3,23.9c-6.2,6.3-14,9.5-23.4,9.5s-11.4-1.3-16.6-3.9c-5.3-2.6-9.3-6.5-12-11.6s-4.1-11.3-4.1-18.6ZM572.6,391.1c0,6.3,1.5,11.1,4.5,14.5s6.7,5,11.1,5,8.1-1.7,11-5c3-3.3,4.5-8.2,4.5-14.6s-1.5-11-4.5-14.3c-3-3.3-6.6-5-11-5s-8.1,1.7-11.1,5-4.5,8.2-4.5,14.5Z"/><path class="cls-1" d="M663.1,359.4v13.4h-11.5v25.6c0,5.2.1,8.2.3,9.1s.7,1.6,1.5,2.1c.8.6,1.7.8,2.8.8s3.8-.5,6.8-1.6l1.4,13c-3.9,1.7-8.3,2.5-13.3,2.5s-5.8-.5-8.2-1.5c-2.4-1-4.2-2.3-5.3-3.9-1.1-1.6-1.9-3.8-2.4-6.5-.4-2-.5-5.9-.5-11.8v-27.7h-7.7v-13.4h7.7v-12.6l16.9-9.8v22.4h11.5Z"/><path class="cls-1" d="M670.9,390.2c0-5.6,1.4-11,4.1-16.2,2.7-5.2,6.6-9.2,11.7-12,5-2.7,10.7-4.1,16.9-4.1,9.6,0,17.5,3.1,23.6,9.4s9.2,14.1,9.2,23.6-3.1,17.6-9.3,23.9c-6.2,6.3-14,9.5-23.4,9.5s-11.4-1.3-16.6-3.9c-5.3-2.6-9.3-6.5-12-11.6s-4.1-11.3-4.1-18.6ZM688.1,391.1c0,6.3,1.5,11.1,4.5,14.5,3,3.3,6.7,5,11.1,5s8.1-1.7,11-5c3-3.3,4.5-8.2,4.5-14.6s-1.5-11-4.5-14.3c-3-3.3-6.6-5-11-5s-8.1,1.7-11.1,5c-3,3.3-4.5,8.2-4.5,14.5Z"/><path class="cls-1" d="M748,427l19.2,2.3c.3,2.2,1.1,3.8,2.2,4.6,1.6,1.2,4.1,1.8,7.5,1.8s7.7-.7,9.9-2c1.5-.9,2.6-2.3,3.3-4.2.5-1.4.8-4,.8-7.7v-9.3c-5,6.9-11.4,10.3-19,10.3s-15.3-3.6-20.3-10.8c-3.9-5.7-5.9-12.8-5.9-21.3s2.6-18.8,7.7-24.4c5.1-5.6,11.5-8.4,19.1-8.4s14.3,3.4,19.4,10.3v-8.9h15.7v57c0,7.5-.6,13.1-1.9,16.8-1.2,3.7-3,6.6-5.2,8.7-2.2,2.1-5.2,3.8-8.9,5-3.7,1.2-8.4,1.8-14.1,1.8-10.8,0-18.4-1.8-22.9-5.5-4.5-3.7-6.8-8.4-6.8-14s0-1.2,0-2ZM763,389.8c0,6.7,1.3,11.7,3.9,14.8,2.6,3.1,5.8,4.7,9.7,4.7s7.6-1.6,10.4-4.8c2.8-3.2,4.2-8,4.2-14.3s-1.4-11.5-4.1-14.6c-2.7-3.2-6.1-4.8-10.3-4.8s-7.3,1.6-10,4.7c-2.6,3.1-3.9,7.9-3.9,14.3Z"/><path class="cls-1" d="M840.4,422.9h-16.8v-63.5h15.6v9c2.7-4.3,5.1-7.1,7.2-8.4,2.1-1.4,4.6-2,7.3-2s7.5,1.1,11.1,3.2l-5.2,14.6c-2.8-1.8-5.5-2.7-7.9-2.7s-4.3.6-6,1.9c-1.6,1.3-2.9,3.6-3.9,7-.9,3.4-1.4,10.5-1.4,21.3v19.6Z"/><path class="cls-1" d="M884.5,378.8l-15.2-2.7c1.7-6.1,4.7-10.7,8.8-13.6,4.2-2.9,10.4-4.4,18.6-4.4s13.1.9,16.7,2.7c3.7,1.8,6.2,4,7.7,6.8,1.5,2.7,2.2,7.7,2.2,15l-.2,19.6c0,5.6.3,9.7.8,12.3.5,2.7,1.5,5.5,3,8.5h-16.6c-.4-1.1-1-2.8-1.6-5-.3-1-.5-1.7-.6-2-2.9,2.8-5.9,4.9-9.2,6.3-3.3,1.4-6.8,2.1-10.5,2.1-6.5,0-11.7-1.8-15.4-5.3-3.8-3.5-5.6-8-5.6-13.4s.9-6.8,2.6-9.6c1.7-2.8,4.1-5,7.2-6.5,3.1-1.5,7.5-2.8,13.4-3.9,7.8-1.5,13.3-2.8,16.3-4.1v-1.7c0-3.2-.8-5.5-2.4-6.9-1.6-1.4-4.6-2.1-9-2.1s-5.3.6-7,1.8c-1.7,1.2-3,3.2-4.1,6.2ZM907,392.4c-2.2.7-5.6,1.6-10.2,2.6-4.7,1-7.7,2-9.1,2.9-2.2,1.6-3.3,3.5-3.3,5.9s.9,4.4,2.6,6.1c1.8,1.7,4,2.6,6.7,2.6s5.9-1,8.7-3c2-1.5,3.4-3.4,4-5.6.4-1.4.7-4.2.7-8.2v-3.3Z"/><path class="cls-1" d="M939.5,359.4h15.7v9.3c2-3.2,4.8-5.8,8.2-7.8,3.5-2,7.3-3,11.5-3,7.4,0,13.6,2.9,18.8,8.7,5.1,5.8,7.7,13.8,7.7,24.1s-2.6,18.8-7.8,24.7c-5.2,5.9-11.5,8.8-18.8,8.8s-6.7-.7-9.5-2.1c-2.8-1.4-5.8-3.8-9-7.2v32h-16.8v-87.6ZM956.1,390.1c0,7.1,1.4,12.4,4.2,15.8,2.8,3.4,6.3,5.1,10.3,5.1s7.2-1.6,9.7-4.7c2.6-3.1,3.9-8.3,3.9-15.4s-1.3-11.6-4-14.8c-2.7-3.2-6-4.8-9.9-4.8s-7.5,1.6-10.2,4.8c-2.7,3.2-4.1,7.9-4.1,14.1Z"/><path class="cls-1" d="M1031.5,335.3v32.2c5.4-6.3,11.9-9.5,19.4-9.5s7.4.7,10.5,2.2c3.1,1.4,5.4,3.3,7,5.5,1.6,2.2,2.6,4.7,3.2,7.4.6,2.7.9,6.9.9,12.6v37.2h-16.8v-33.5c0-6.7-.3-10.9-1-12.7s-1.8-3.2-3.4-4.3c-1.6-1.1-3.6-1.6-6.1-1.6s-5.3.7-7.5,2c-2.2,1.4-3.8,3.4-4.8,6.1-1,2.7-1.5,6.8-1.5,12.1v31.8h-16.8v-87.6h16.8Z"/><path class="cls-1" d="M1081.6,359.4h17.9l15.2,45.1,14.8-45.1h17.4l-22.4,61.1-4,11.1c-1.5,3.7-2.9,6.5-4.2,8.5s-2.9,3.5-4.6,4.8c-1.7,1.2-3.9,2.2-6.4,2.8-2.5.7-5.4,1-8.6,1s-6.4-.3-9.5-1l-1.5-13.1c2.6.5,5,.8,7.1.8,3.9,0,6.8-1.1,8.7-3.4,1.9-2.3,3.3-5.2,4.3-8.8l-24.1-63.6Z"/></svg>